<?xml version="1.0" encoding="UTF-8" standalone="no"?><!DOCTYPE svg PUBLIC "-//W3C//DTD SVG 1.1//EN" "http://www.w3.org/Graphics/SVG/1.1/DTD/svg11.dtd"><svg width="100%" height="100%" viewBox="0 0 3429 1324" version="1.1" xmlns="http://www.w3.org/2000/svg" xmlns:xlink="http://www.w3.org/1999/xlink" xml:space="preserve" xmlns:serif="http://www.serif.com/" style="fill-rule:evenodd;clip-rule:evenodd;stroke-linecap:round;stroke-linejoin:round;stroke-miterlimit:1.5;"><text x="987.765px" y="226.924px" style="font-family:'Gilroy-ExtraBold', 'Gilroy';font-weight:800;font-size:58.333px;">W<tspan x="1042.48px 1075.15px 1101.28px 1123.91px 1151.62px " y="226.924px 226.924px 226.924px 226.924px 226.924px ">estLa</tspan>w India</text><text x="1744.21px" y="226.924px" style="font-family:'Gilroy-ExtraBold', 'Gilroy';font-weight:800;font-size:58.333px;">Manupatr<tspan x="2012.43px " y="226.924px ">a</tspan></text><text x="2546.99px" y="226.924px" style="font-family:'Gilroy-ExtraBold', 'Gilroy';font-weight:800;font-size:58.333px;">S<tspan x="2580.82px 2621.6px " y="226.924px 226.924px ">CC</tspan></text><rect x="9.449" y="385.904" width="3148.82" height="127.615" style="fill:#ff3434;fill-opacity:0.1;"/><rect x="9.449" y="886.459" width="3148.82" height="127.615" style="fill:#ff3434;fill-opacity:0.1;"/><rect x="9.449" y="638.446" width="3148.82" height="127.615" style="fill:#ff3434;fill-opacity:0.1;"/><rect x="9.449" y="1141.69" width="3148.82" height="127.615" style="fill:#ff3434;fill-opacity:0.1;"/><rect x="9.449" y="258.64" width="3148.82" height="127.615" style="fill:#fff;"/><rect x="9.449" y="761.883" width="3148.82" height="127.615" style="fill:#fff;"/><rect x="9.449" y="513.87" width="3148.82" height="127.615" style="fill:#fff;"/><rect x="9.449" y="1017.11" width="3148.82" height="127.615" style="fill:#fff;"/><path d="M955.09,2.917l-0,1317.4" style="fill:none;stroke:#535353;stroke-opacity:0.31;stroke-width:5.83px;"/><path d="M3425.92,254.538l-3423,0" style="fill:none;stroke:#535353;stroke-opacity:0.31;stroke-width:5.83px;"/><text x="25.675px" y="338.302px" style="font-family:'Gilroy-Light', 'Gilroy';font-weight:300;font-size:50px;">Find Inf<tspan x="189.125px " y="338.302px ">o</tspan>rmation without s<tspan x="621.025px " y="338.302px ">i</tspan>gning up</text><g transform="matrix(1,0,0,1,-19783.2,-1276.62)"><text x="19836.1px" y="1845.86px" style="font-family:'Gilroy-Light', 'Gilroy';font-weight:300;font-size:50px;">A<tspan x="19867.1px 19894.9px 19922.7px 19951.1px 19972.5px 19995.2px " y="1845.86px 1845.86px 1845.86px 1845.86px 1845.86px 1845.86px ">ccessi</tspan>ng Inf<tspan x="20132.9px " y="1845.86px ">o</tspan>rmation eas<tspan x="20439.9px " y="1845.86px ">i</tspan>ly thr<tspan x="20560.5px " y="1845.86px ">o</tspan>ugh</text><text x="20180.7px" y="1895.86px" style="font-family:'Gilroy-Light', 'Gilroy';font-weight:300;font-size:50px;">s<tspan x="20202.9px " y="1895.86px ">e</tspan>ar<tspan x="20279px " y="1895.86px ">c</tspan>h</text></g><text x="60.603px" y="717.927px" style="font-family:'Gilroy-Light', 'Gilroy';font-weight:300;font-size:50px;">Document and edit within app it<tspan x="811.553px 833.703px " y="717.927px 717.927px ">se</tspan>lf</text><text x="138.523px" y="841.364px" style="font-family:'Gilroy-Light', 'Gilroy';font-weight:300;font-size:50px;">L<tspan x="161.923px " y="841.364px ">e</tspan>gibilit<tspan x="316.123px " y="841.364px ">y</tspan> and us<tspan x="511.373px " y="841.364px ">e</tspan>r int<tspan x="625.773px " y="841.364px ">e</tspan>rf<tspan x="685.123px 717.373px 745.173px " y="841.364px 841.364px 841.364px ">ace</tspan></text><text x="214.498px" y="965.94px" style="font-family:'Gilroy-Light', 'Gilroy';font-weight:300;font-size:50px;">Updat<tspan x="361.898px " y="965.94px ">e</tspan>d inf<tspan x="489.348px " y="965.94px ">o</tspan>rmation</text><text x="205.248px" y="1096.59px" style="font-family:'Gilroy-Light', 'Gilroy';font-weight:300;font-size:50px;">S<tspan x="234.648px " y="1096.59px ">a</tspan>ving S<tspan x="405.998px " y="1096.59px ">e</tspan>ar<tspan x="482.098px " y="1096.59px ">c</tspan>h His<tspan x="618.148px 635.448px 665.998px 682.398px " y="1096.59px 1096.59px 1096.59px 1096.59px ">tory</tspan></text><text x="155.523px" y="1221.17px" style="font-family:'Gilroy-Light', 'Gilroy';font-weight:300;font-size:50px;">Navigation within the app</text><g transform="matrix(1,0,0,1,-19768,-1404.56)"><text x="19805.7px" y="1845.86px" style="font-family:'Gilroy-Light', 'Gilroy';font-weight:300;font-size:50px;">S<tspan x="19835.1px 19867.3px 19891.9px " y="1845.86px 1845.86px 1845.86px ">ave</tspan>/Shar<tspan x="20051.2px " y="1845.86px ">e</tspan> and P<tspan x="20228.9px " y="1845.86px ">r</tspan>int in a us<tspan x="20463.1px 20492.5px 20507.4px " y="1845.86px 1845.86px 1845.86px ">er-</tspan>friendly</text><text x="20165.1px" y="1895.86px" style="font-family:'Gilroy-Light', 'Gilroy';font-weight:300;font-size:50px;">manner</text></g><g><circle cx="1186.71" cy="577.677" r="31.699" style="fill:#f00;fill-opacity:0.8;"/></g><g><circle cx="1186.71" cy="950.267" r="31.699" style="fill:#f00;fill-opacity:0.8;"/></g><g><circle cx="1186.71" cy="1080.92" r="31.699" style="fill:#f00;fill-opacity:0.8;"/></g><g><circle cx="1902.33" cy="322.447" r="31.699" style="fill:#f00;fill-opacity:0.8;"/></g><g><circle cx="1902.33" cy="322.447" r="31.699" style="fill:#f00;fill-opacity:0.8;"/></g><g><circle cx="1902.33" cy="577.677" r="31.699" style="fill:#f00;fill-opacity:0.8;"/></g><g><circle cx="1902.33" cy="950.267" r="31.699" style="fill:#f00;fill-opacity:0.8;"/></g><g><circle cx="1902.33" cy="1080.92" r="31.699" style="fill:#f00;fill-opacity:0.8;"/></g><g><circle cx="1902.33" cy="449.712" r="31.699" style="fill:#f00;fill-opacity:0.8;"/></g><g><circle cx="2610.16" cy="577.677" r="31.699" style="fill:#f00;fill-opacity:0.8;"/></g><g><circle cx="2610.16" cy="950.267" r="31.699" style="fill:#f00;fill-opacity:0.8;"/></g><g><circle cx="2610.16" cy="1080.92" r="31.699" style="fill:#f00;fill-opacity:0.8;"/></g></svg>