<?xml version="1.0" encoding="UTF-8" standalone="no"?><!DOCTYPE svg PUBLIC "-//W3C//DTD SVG 1.1//EN" "http://www.w3.org/Graphics/SVG/1.1/DTD/svg11.dtd"><svg width="100%" height="100%" viewBox="0 0 3351 1608" version="1.1" xmlns="http://www.w3.org/2000/svg" xmlns:xlink="http://www.w3.org/1999/xlink" xml:space="preserve" xmlns:serif="http://www.serif.com/" style="fill-rule:evenodd;clip-rule:evenodd;stroke-linejoin:round;stroke-miterlimit:2;"><path d="M987.367,153.445c0,-84.689 -68.756,-153.445 -153.444,-153.445l-663.034,0c-84.688,0 -153.445,68.756 -153.445,153.445l0,306.89c0,84.688 68.757,153.445 153.445,153.445l663.034,-0c84.688,-0 153.444,-68.757 153.444,-153.445l0,-306.89Z" style="fill:#ff3434;fill-opacity:0.25;"/><path d="M2167.41,164.397c0,-84.689 -68.756,-153.445 -153.445,-153.445l-663.033,0c-84.688,0 -153.445,68.756 -153.445,153.445l0,306.89c0,84.688 68.757,153.445 153.445,153.445l663.033,-0c84.689,-0 153.445,-68.757 153.445,-153.445l0,-306.89Z" style="fill:#ff3434;fill-opacity:0.25;"/><path d="M969.923,1003.95c0,-84.688 -68.756,-153.444 -153.445,-153.444l-663.033,-0c-84.689,-0 -153.445,68.756 -153.445,153.444l-0,306.89c-0,84.689 68.756,153.445 153.445,153.445l663.033,0c84.689,0 153.445,-68.756 153.445,-153.445l0,-306.89Z" style="fill:#ff3434;fill-opacity:0.25;"/><path d="M3350.19,1041.04c0,-104.222 -84.615,-188.837 -188.837,-188.837l-592.249,0c-104.222,0 -188.837,84.615 -188.837,188.837l-0,377.673c-0,104.222 84.615,188.837 188.837,188.837l592.249,0c104.222,0 188.837,-84.615 188.837,-188.837l0,-377.673Z" style="fill:#ff3434;fill-opacity:0.25;"/><path d="M3347.86,164.397c-0,-84.689 -68.756,-153.445 -153.445,-153.445l-663.033,0c-84.689,0 -153.445,68.756 -153.445,153.445l-0,306.89c-0,84.688 68.756,153.445 153.445,153.445l663.033,-0c84.689,-0 153.445,-68.757 153.445,-153.445l-0,-306.89Z" style="fill:#ff3434;fill-opacity:0.25;"/><g transform="matrix(1,0,0,1,-19599.4,-1654.02)"><text x="19939.3px" y="1851.94px" style="font-family:'Gilroy-ExtraBold', 'Gilroy';font-weight:800;font-size:58.333px;">5<tspan x="19970.8px 20001.7px 20013.9px " y="1851.94px 1851.94px 1851.94px ">5.9</tspan>%</text><text x="20106.9px" y="1851.94px" style="font-family:'Gilroy-Light', 'Gilroy';font-weight:300;font-size:58.333px;">o<tspan x="20141.4px " y="1851.94px ">f</tspan> the</text><text x="19784.4px" y="1910.27px" style="font-family:'Gilroy-Light', 'Gilroy';font-weight:300;font-size:58.333px;">par<tspan x="19878.6px " y="1910.27px ">t</tspan>icipant<tspan x="20085.4px " y="1910.27px ">s</tspan> mentioned</text><text x="19906.3px" y="1968.61px" style="font-family:'Gilroy-Light', 'Gilroy';font-weight:300;font-size:58.333px;">the<tspan x="19994.4px " y="1968.61px ">y</tspan> us<tspan x="20098.4px " y="1968.61px ">e</tspan> L<tspan x="20175.7px " y="1968.61px ">e</tspan>gal</text><text x="19866.4px" y="2026.94px" style="font-family:'Gilroy-Light', 'Gilroy';font-weight:300;font-size:58.333px;">R<tspan x="19900.7px 19933.9px 19959.8px " y="2026.94px 2026.94px 2026.94px ">ese</tspan>ar<tspan x="20048.5px " y="2026.94px ">c</tspan>h T<tspan x="20156px " y="2026.94px ">o</tspan>ols t<tspan x="20301.6px " y="2026.94px ">o</tspan></text><text x="19847.7px" y="2085.27px" style="font-family:'Gilroy-Light', 'Gilroy';font-weight:300;font-size:58.333px;">ac<tspan x="19917.8px 19950.2px 19983.4px 20008.4px " y="2085.27px 2085.27px 2085.27px 2085.27px ">cess</tspan> inf<tspan x="20111.8px " y="2085.27px ">o</tspan>rmation</text></g><g transform="matrix(1,0,0,1,-18419.4,-1643.06)"><text x="19943.9px" y="1851.94px" style="font-family:'Gilroy-ExtraBold', 'Gilroy';font-weight:800;font-size:58.333px;">6<tspan x="19974.9px 19994.7px 20011px 20041.9px " y="1851.94px 1851.94px 1851.94px 1851.94px ">7.6%</tspan></text><text x="20102.3px" y="1851.94px" style="font-family:'Gilroy-Light', 'Gilroy';font-weight:300;font-size:58.333px;">o<tspan x="20136.7px " y="1851.94px ">f</tspan> the</text><text x="19807px" y="1910.27px" style="font-family:'Gilroy-Light', 'Gilroy';font-weight:300;font-size:58.333px;">par<tspan x="19901.2px " y="1910.27px ">t</tspan>icipant<tspan x="20108px " y="1910.27px ">s</tspan> s<tspan x="20176.2px " y="1910.27px ">a</tspan>id the<tspan x="20366.9px " y="1910.27px ">y</tspan></text><text x="19841.4px" y="1968.61px" style="font-family:'Gilroy-Light', 'Gilroy';font-weight:300;font-size:58.333px;">us<tspan x="19900.1px " y="1968.61px ">e</tspan> L<tspan x="19977.3px " y="1968.61px ">e</tspan>gal R<tspan x="20148.9px 20182.1px 20207.9px " y="1968.61px 1968.61px 1968.61px ">ese</tspan>ar<tspan x="20296.7px " y="1968.61px ">c</tspan>h</text><text x="19795.8px" y="2026.94px" style="font-family:'Gilroy-Light', 'Gilroy';font-weight:300;font-size:58.333px;">t<tspan x="19816px " y="2026.94px ">o</tspan>ols fr<tspan x="19976.6px " y="2026.94px ">e</tspan>quently in their</text><text x="19984.1px" y="2085.27px" style="font-family:'Gilroy-Light', 'Gilroy';font-weight:300;font-size:58.333px;">pr<tspan x="20038.5px " y="2085.27px ">a</tspan>ctic<tspan x="20175.1px 20207.2px " y="2085.27px 2085.27px ">e.</tspan></text></g><g transform="matrix(1,0,0,1,-19616.9,-875.043)"><text x="19937.3px" y="1851.94px" style="font-family:'Gilroy-ExtraBold', 'Gilroy';font-weight:800;font-size:58.333px;">8<tspan x="19970.2px " y="1851.94px ">2</tspan>.4<tspan x="20048.6px " y="1851.94px ">%</tspan></text><text x="20108.9px" y="1851.94px" style="font-family:'Gilroy-Light', 'Gilroy';font-weight:300;font-size:58.333px;">o<tspan x="20143.4px " y="1851.94px ">f</tspan> the</text><text x="19807px" y="1910.27px" style="font-family:'Gilroy-Light', 'Gilroy';font-weight:300;font-size:58.333px;">par<tspan x="19901.2px " y="1910.27px ">t</tspan>icipant<tspan x="20108px " y="1910.27px ">s</tspan> s<tspan x="20176.2px " y="1910.27px ">a</tspan>id the<tspan x="20366.9px " y="1910.27px ">y</tspan></text><text x="19806.7px" y="1968.61px" style="font-family:'Gilroy-Light', 'Gilroy';font-weight:300;font-size:58.333px;">us<tspan x="19865.5px " y="1968.61px ">e</tspan> A<tspan x="19951.5px 19989.1px 20017.8px " y="1968.61px 1968.61px 1968.61px ">dva</tspan>nc<tspan x="20120.7px " y="1968.61px ">e</tspan>d S<tspan x="20242.6px " y="1968.61px ">e</tspan>ar<tspan x="20331.4px " y="1968.61px ">c</tspan>h</text><text x="19979.1px" y="2026.94px" style="font-family:'Gilroy-Light', 'Gilroy';font-weight:300;font-size:58.333px;">Featur<tspan x="20152.9px 20186.1px 20212.2px " y="2026.94px 2026.94px 2026.94px ">es.</tspan></text><text x="19942px" y="2135.27px" style="font-family:'Gilroy-ExtraBold', 'Gilroy';font-weight:800;font-size:58.333px;">6<tspan x="19971.7px " y="2135.27px ">1</tspan>.8<tspan x="20043.9px " y="2135.27px ">%</tspan></text><text x="20104.2px" y="2135.27px" style="font-family:'Gilroy-Light', 'Gilroy';font-weight:300;font-size:58.333px;">o<tspan x="20138.7px " y="2135.27px ">f</tspan> the</text><text x="19792.9px" y="2193.61px" style="font-family:'Gilroy-Light', 'Gilroy';font-weight:300;font-size:58.333px;">par<tspan x="19887.2px " y="2193.61px ">t</tspan>icipant<tspan x="20093.9px " y="2193.61px ">s</tspan> us<tspan x="20195px " y="2193.61px ">e</tspan> Shar<tspan x="20365.7px 20397.7px " y="2193.61px 2193.61px ">e,</tspan></text><text x="19780.6px" y="2251.94px" style="font-family:'Gilroy-Light', 'Gilroy';font-weight:300;font-size:58.333px;">S<tspan x="19814.9px 19852.5px 19881.2px " y="2251.94px 2251.94px 2251.94px ">ave</tspan> and P<tspan x="20088.5px " y="2251.94px ">r</tspan>int Featur<tspan x="20363.2px 20396.4px " y="2251.94px 2251.94px ">es</tspan></text></g><g transform="matrix(1,0,0,1,-17236.6,-888.898)"><text x="19938.3px" y="1851.94px" style="font-family:'Gilroy-ExtraBold', 'Gilroy';font-weight:800;font-size:58.333px;">3<tspan x="19970px 20001px 20017.3px 20047.6px " y="1851.94px 1851.94px 1851.94px 1851.94px ">5.3%</tspan></text><text x="20107.9px" y="1851.94px" style="font-family:'Gilroy-Light', 'Gilroy';font-weight:300;font-size:58.333px;">o<tspan x="20142.4px " y="1851.94px ">f</tspan> the</text><text x="19807px" y="1910.27px" style="font-family:'Gilroy-Light', 'Gilroy';font-weight:300;font-size:58.333px;">par<tspan x="19901.2px " y="1910.27px ">t</tspan>icipant<tspan x="20108px " y="1910.27px ">s</tspan> s<tspan x="20176.2px " y="1910.27px ">a</tspan>id the<tspan x="20366.9px " y="1910.27px ">y</tspan></text><text x="19794.7px" y="1968.61px" style="font-family:'Gilroy-Light', 'Gilroy';font-weight:300;font-size:58.333px;">us<tspan x="19853.4px " y="1968.61px ">e</tspan> their mobile phone</text><text x="19943.7px" y="2026.94px" style="font-family:'Gilroy-Light', 'Gilroy';font-weight:300;font-size:58.333px;">f<tspan x="19960px " y="2026.94px ">o</tspan>r r<tspan x="20046.6px 20079.8px 20105.6px " y="2026.94px 2026.94px 2026.94px ">ese</tspan>ar<tspan x="20194.4px " y="2026.94px ">c</tspan>h</text><text x="19903.6px" y="2135.27px" style="font-family:'Gilroy-ExtraBold', 'Gilroy';font-weight:800;font-size:58.333px;">Ma<tspan x="19987.2px " y="2135.27px ">j</tspan>ority</text><text x="20142.6px" y="2135.27px" style="font-family:'Gilroy-Light', 'Gilroy';font-weight:300;font-size:58.333px;">o<tspan x="20177px " y="2135.27px ">f</tspan> the</text><text x="19887.9px" y="2193.61px" style="font-family:'Gilroy-Light', 'Gilroy';font-weight:300;font-size:58.333px;">par<tspan x="19982.2px " y="2193.61px ">t</tspan>icipant<tspan x="20188.9px " y="2193.61px ">s</tspan> f<tspan x="20247.6px " y="2193.61px ">e</tspan>lt</text><text x="19850.2px" y="2251.94px" style="font-family:'Gilroy-Light', 'Gilroy';font-weight:300;font-size:58.333px;">smar<tspan x="19983.5px " y="2251.94px ">t</tspan>phone<tspan x="20177.7px " y="2251.94px ">s</tspan> hav<tspan x="20319.1px " y="2251.94px ">e</tspan></text><text x="19850.5px" y="2310.27px" style="font-family:'Gilroy-Light', 'Gilroy';font-weight:300;font-size:58.333px;">poor e<tspan x="20026.7px " y="2310.27px ">x</tspan>perienc<tspan x="20258.4px " y="2310.27px ">e</tspan> in</text><text x="19850.2px" y="2368.61px" style="font-family:'Gilroy-Light', 'Gilroy';font-weight:300;font-size:58.333px;">t<tspan x="19870.4px " y="2368.61px ">e</tspan>rms o<tspan x="20050px " y="2368.61px ">f</tspan> ac<tspan x="20153.9px 20186.3px 20219.5px 20244.5px 20270.9px " y="2368.61px 2368.61px 2368.61px 2368.61px 2368.61px ">cessi</tspan>ng</text><text x="19949.2px" y="2426.94px" style="font-family:'Gilroy-Light', 'Gilroy';font-weight:300;font-size:58.333px;">inf<tspan x="20010.3px " y="2426.94px ">o</tspan>rmation</text></g><g transform="matrix(1,0,0,1,-17239,-1694.21)"><text x="19903.6px" y="1851.94px" style="font-family:'Gilroy-ExtraBold', 'Gilroy';font-weight:800;font-size:58.333px;">Ma<tspan x="19987.2px " y="1851.94px ">j</tspan>ority</text><text x="20142.6px" y="1851.94px" style="font-family:'Gilroy-Light', 'Gilroy';font-weight:300;font-size:58.333px;">o<tspan x="20177px " y="1851.94px ">f</tspan> the</text><text x="19784.4px" y="1910.27px" style="font-family:'Gilroy-Light', 'Gilroy';font-weight:300;font-size:58.333px;">par<tspan x="19878.6px " y="1910.27px ">t</tspan>icipant<tspan x="20085.4px " y="1910.27px ">s</tspan> mentioned</text><text x="19841.7px" y="1968.61px" style="font-family:'Gilroy-Light', 'Gilroy';font-weight:300;font-size:58.333px;">that the<tspan x="20059.7px " y="1968.61px ">y</tspan> us<tspan x="20163.8px " y="1968.61px ">e</tspan> the<tspan x="20301.8px 20327.6px " y="1968.61px 1968.61px ">se</tspan></text><text x="19899.6px" y="2026.94px" style="font-family:'Gilroy-Light', 'Gilroy';font-weight:300;font-size:58.333px;">t<tspan x="19919.8px " y="2026.94px ">o</tspan>ols t<tspan x="20065.5px " y="2026.94px ">o</tspan> ac<tspan x="20186.8px 20219.2px 20252.4px 20277.3px " y="2026.94px 2026.94px 2026.94px 2026.94px ">cess</tspan></text><text x="19899.7px" y="2085.27px" style="font-family:'Gilroy-Light', 'Gilroy';font-weight:300;font-size:58.333px;">inf<tspan x="19960.8px " y="2085.27px ">o</tspan>rmation lik<tspan x="20269.6px " y="2085.27px ">e</tspan></text><text x="19890.1px" y="2143.61px" style="font-family:'Gilroy-ExtraBold', 'Gilroy';font-weight:800;font-size:58.333px;">C<tspan x="19931.7px 19967.8px 19994.5px " y="2143.61px 2143.61px 2143.61px ">ase</tspan>law<tspan x="20123px 20149.7px " y="2143.61px 2143.61px ">s,</tspan> ac<tspan x="20248.2px 20270px 20296.7px " y="2143.61px 2143.61px 2143.61px ">ts,</tspan></text><text x="19874.8px" y="2201.94px" style="font-family:'Gilroy-ExtraBold', 'Gilroy';font-weight:800;font-size:58.333px;">judgement<tspan x="20170.7px 20197.4px " y="2201.94px 2201.94px ">s,</tspan> e<tspan x="20261.9px 20283.4px 20312.6px " y="2201.94px 2201.94px 2201.94px ">tc.</tspan></text></g></svg>