<?xml version="1.0" encoding="UTF-8" standalone="no"?><!DOCTYPE svg PUBLIC "-//W3C//DTD SVG 1.1//EN" "http://www.w3.org/Graphics/SVG/1.1/DTD/svg11.dtd"><svg width="100%" height="100%" viewBox="0 0 2615 852" version="1.1" xmlns="http://www.w3.org/2000/svg" xmlns:xlink="http://www.w3.org/1999/xlink" xml:space="preserve" xmlns:serif="http://www.serif.com/" style="fill-rule:evenodd;clip-rule:evenodd;stroke-linejoin:round;stroke-miterlimit:2;"><g><circle cx="232.654" cy="232.654" r="232.654" style="fill:#f00;fill-opacity:0.8;"/><text x="75.125px" y="251.19px" style="font-family:'Gilroy-Light', 'Gilroy';font-weight:300;font-size:58.333px;fill:#fff;stroke:#fff;stroke-width:2.5px;">Under<tspan x="236.3px 261.85px 282.033px " y="251.19px 251.19px 251.19px ">sta</tspan>nd</text></g><g><circle cx="1647.76" cy="232.654" r="232.654" style="fill:#f00;fill-opacity:0.8;"/><text x="1559.06px" y="251.19px" style="font-family:'Gilroy-Light', 'Gilroy';font-weight:300;font-size:58.333px;fill:#fff;stroke:#fff;stroke-width:2.5px;">Ideat<tspan x="1702.1px " y="251.19px ">e</tspan></text></g><g><circle cx="937.366" cy="232.654" r="232.654" style="fill:#f00;fill-opacity:0.8;"/><text x="868.678px" y="251.19px" style="font-family:'Gilroy-Light', 'Gilroy';font-weight:300;font-size:58.333px;fill:#fff;stroke:#fff;stroke-width:2.5px;">Think</text></g><g><circle cx="2352.47" cy="232.654" r="232.654" style="fill:#f00;fill-opacity:0.8;"/><text x="2260.16px" y="251.19px" style="font-family:'Gilroy-Light', 'Gilroy';font-weight:300;font-size:58.333px;fill:#fff;stroke:#fff;stroke-width:2.5px;">De<tspan x="2335.76px 2362.18px " y="251.19px 251.19px ">si</tspan>gn</text></g><path d="M465.298,242.608l0,-12.003l215.929,-0l0,-18.005l24.006,24.006l-24.006,24.006l0,-18.004l-215.929,-0Z"/><path d="M1880.87,241.118l-0,-12.003l215.928,-0l0,-18.005l24.006,24.006l-24.006,24.006l0,-18.004l-215.928,-0Z"/><path d="M1169.83,242.608l0,-12.003l215.929,-0l0,-18.005l24.006,24.006l-24.006,24.006l0,-18.004l-215.929,-0Z"/><g transform="matrix(1,0,0,1,-11.5999,514.746)"><text x="11.811px" y="36.5px" style="font-family:'Gilroy-Light', 'Gilroy';font-weight:300;font-size:50px;">• <tspan x="59.055px " y="36.5px ">E</tspan>xplor<tspan x="198.455px " y="36.5px ">e</tspan> P<tspan x="270.105px 284.505px " y="36.5px 36.5px ">ro</tspan>blem spac<tspan x="558.355px 585.805px " y="36.5px 36.5px ">e.</tspan></text><text x="59.055px" y="86.5px" style="font-family:'Gilroy-Light', 'Gilroy';font-weight:300;font-size:50px;">Under<tspan x="197.205px 219.105px 236.405px " y="86.5px 86.5px 86.5px ">sta</tspan>nd cus<tspan x="420.605px 437.905px " y="86.5px 86.5px ">to</tspan>mer</text><text x="59.055px" y="136.5px" style="font-family:'Gilroy-Light', 'Gilroy';font-weight:300;font-size:50px;">needs<tspan x="200.805px " y="136.5px ">.</tspan></text><text x="11.811px" y="236.5px" style="font-family:'Gilroy-Light', 'Gilroy';font-weight:300;font-size:50px;">• <tspan x="59.055px " y="236.5px ">U</tspan>nder<tspan x="197.205px 219.105px 236.405px " y="236.5px 236.5px 236.5px ">sta</tspan>nd L<tspan x="365.855px " y="236.5px ">a</tspan>wnic<tspan x="502.805px " y="236.5px ">s</tspan></text><text x="59.055px" y="286.5px" style="font-family:'Gilroy-Light', 'Gilroy';font-weight:300;font-size:50px;">s<tspan x="80.955px 99.755px 114.155px 146.405px 163.705px " y="286.5px 286.5px 286.5px 286.5px 286.5px ">trate</tspan>gy<tspan x="246.555px " y="286.5px ">,</tspan> C<tspan x="308.355px " y="286.5px ">o</tspan>mpe<tspan x="442.705px " y="286.5px ">t</tspan>it<tspan x="489.005px 519.555px 534.455px 556.855px " y="286.5px 286.5px 286.5px 286.5px ">ors,</tspan></text><text x="59.055px" y="336.5px" style="font-family:'Gilroy-Light', 'Gilroy';font-weight:300;font-size:50px;">e<tspan x="87.755px 105.055px 131.605px " y="336.5px 336.5px 336.5px ">tc.</tspan></text></g><g transform="matrix(1,0,0,1,702.204,514.746)"><text x="11.811px" y="36.5px" style="font-family:'Gilroy-Light', 'Gilroy';font-weight:300;font-size:50px;">• <tspan x="59.055px 95.405px 124.105px " y="36.5px 36.5px 36.5px ">Deﬁ</tspan>ne the pr<tspan x="357.055px " y="36.5px ">o</tspan>blem</text><text x="59.055px" y="86.5px" style="font-family:'Gilroy-Light', 'Gilroy';font-weight:300;font-size:50px;">and ins<tspan x="226.155px " y="86.5px ">i</tspan>ght<tspan x="314.255px 336.655px " y="86.5px 86.5px ">s.</tspan></text><text x="11.811px" y="186.5px" style="font-family:'Gilroy-Light', 'Gilroy';font-weight:300;font-size:50px;">• <tspan x="59.055px " y="186.5px ">M</tspan>ap out Oppor<tspan x="420.255px " y="186.5px ">t</tspan>unit<tspan x="524.955px " y="186.5px ">y</tspan></text><text x="59.055px" y="236.5px" style="font-family:'Gilroy-Light', 'Gilroy';font-weight:300;font-size:50px;">ar<tspan x="105.705px " y="236.5px ">e</tspan>as<tspan x="189.805px " y="236.5px ">.</tspan></text></g><g transform="matrix(1,0,0,1,1409.19,514.746)"><text x="11.811px" y="36.5px" style="font-family:'Gilroy-Light', 'Gilroy';font-weight:300;font-size:50px;">• <tspan x="59.055px 95.405px 123.855px 146.505px " y="36.5px 36.5px 36.5px 36.5px ">Desi</tspan>gn us<tspan x="281.005px " y="36.5px ">e</tspan>r ﬂo<tspan x="394.755px 431.755px 454.155px " y="36.5px 36.5px 36.5px ">ws,</tspan></text><text x="59.055px" y="86.5px" style="font-family:'Gilroy-Light', 'Gilroy';font-weight:300;font-size:50px;">e<tspan x="87.505px " y="86.5px ">x</tspan>plor<tspan x="200.255px " y="86.5px ">e</tspan> po<tspan x="305.355px 326.755px 349.405px " y="86.5px 86.5px 86.5px ">ssi</tspan>bilitie<tspan x="479.905px 502.305px " y="86.5px 86.5px ">s.</tspan></text></g><g transform="matrix(1,0,0,1,2112.13,514.746)"><text x="11.811px" y="36.5px" style="font-family:'Gilroy-Light', 'Gilroy';font-weight:300;font-size:50px;">• <tspan x="59.055px 95.405px 123.855px 146.505px " y="36.5px 36.5px 36.5px 36.5px ">Desi</tspan>gn the pr<tspan x="367.105px " y="36.5px ">o</tspan>duct</text><text x="59.055px" y="86.5px" style="font-family:'Gilroy-Light', 'Gilroy';font-weight:300;font-size:50px;">fr<tspan x="89.105px " y="86.5px ">o</tspan>m L<tspan x="199.255px 228.805px " y="86.5px 86.5px ">ow</tspan> ﬁdelit<tspan x="407.555px " y="86.5px ">y</tspan> t<tspan x="463.705px " y="86.5px ">o</tspan></text><text x="59.055px" y="136.5px" style="font-family:'Gilroy-Light', 'Gilroy';font-weight:300;font-size:50px;">High ﬁdelit<tspan x="304.455px 325.455px " y="136.5px 136.5px ">y.</tspan></text><text x="11.811px" y="236.5px" style="font-family:'Gilroy-Light', 'Gilroy';font-weight:300;font-size:50px;">• <tspan x="59.055px 95.405px 123.855px 146.505px " y="236.5px 236.5px 236.5px 236.5px ">Desi</tspan>gn an MVP</text></g></svg>