<?xml version="1.0" encoding="UTF-8" standalone="no"?><!DOCTYPE svg PUBLIC "-//W3C//DTD SVG 1.1//EN" "http://www.w3.org/Graphics/SVG/1.1/DTD/svg11.dtd"><svg width="100%" height="100%" viewBox="0 0 4793 2139" version="1.1" xmlns="http://www.w3.org/2000/svg" xmlns:xlink="http://www.w3.org/1999/xlink" xml:space="preserve" xmlns:serif="http://www.serif.com/" style="fill-rule:evenodd;clip-rule:evenodd;stroke-linecap:round;stroke-linejoin:round;stroke-miterlimit:1.5;"><path d="M722.334,773.918l0,-12.003l215.929,-0l-0,-18.004l24.006,24.005l-24.006,24.006l-0,-18.004l-215.929,-0Z"/><path d="M2126.09,1662.66l-0,-12.003l604.846,-0l0,-18.005l24.006,24.006l-24.006,24.006l0,-18.004l-604.846,-0Z"/><path d="M2502.85,260.121l0,-12.003l235.375,-0l-0,-18.005l24.005,24.006l-24.005,24.006l-0,-18.004l-235.375,-0Z"/><path d="M2137.41,1659.83l-12.003,-0l-0,-271.579l12.003,0l-0,271.579Z"/><path d="M1514.38,667.807l-6.001,-10.395l440.087,-254.084l-9.002,-15.592l32.792,8.787l-8.787,32.792l-9.002,-15.592l-440.087,254.084Z"/><path d="M1514.38,855.596l-6.001,10.395l440.087,254.084l-9.002,15.593l32.792,-8.787l-8.787,-32.793l-9.002,15.593l-440.087,-254.085Z"/><path d="M3390.61,293.488l-6.001,10.395l311.667,179.941l-9.002,15.592l32.792,-8.786l-8.787,-32.793l-9.002,15.592l-311.667,-179.941Z"/><path d="M3390.61,1191.78l-6.001,-10.395l311.667,-179.941l-9.002,-15.593l32.792,8.787l-8.787,32.793l-9.002,-15.593l-311.667,179.942Z"/><text x="268.355px" y="776.255px" style="font-family:'Gilroy-ExtraBold', 'Gilroy';font-weight:800;font-size:50px;">L<tspan x="292.105px " y="776.255px ">a</tspan>wnic<tspan x="430.205px " y="776.255px ">s</tspan></text><g transform="matrix(1,0,0,1,-18642.4,-1090.87)"><text x="19868.1px" y="1845.86px" style="font-family:'Gilroy-ExtraBold', 'Gilroy';font-weight:800;font-size:50px;">R<tspan x="19897.6px 19925.6px 19948.5px 19977.3px 20008.4px 20026.2px 20052.5px " y="1845.86px 1845.86px 1845.86px 1845.86px 1845.86px 1845.86px 1845.86px ">esearch</tspan></text><text x="19884.3px" y="1895.86px" style="font-family:'Gilroy-ExtraBold', 'Gilroy';font-weight:800;font-size:50px;">Fe<tspan x="19939px " y="1895.86px ">a</tspan>tur<tspan x="20036.5px " y="1895.86px ">e</tspan></text></g><text x="3578.4px" y="776.255px" style="font-family:'Gilroy-ExtraBold', 'Gilroy';font-weight:800;font-size:50px;">Find Inf<tspan x="3749.1px " y="776.255px ">o</tspan>rmat<tspan x="3889.8px " y="776.255px ">i</tspan>on</text><g transform="matrix(1,0,0,1,-17847.6,-559.575)"><text x="19854.7px" y="1845.86px" style="font-family:'Gilroy-ExtraBold', 'Gilroy';font-weight:800;font-size:50px;">Navigat<tspan x="20040px " y="1845.86px ">e</tspan>/</text><text x="19892.3px" y="1895.86px" style="font-family:'Gilroy-ExtraBold', 'Gilroy';font-weight:800;font-size:50px;">Br<tspan x="19940px 19968.5px 20005.5px 20028.5px " y="1895.86px 1895.86px 1895.86px 1895.86px ">owse</tspan></text></g><text x="2975.61px" y="1712.4px" style="font-family:'Gilroy-ExtraBold', 'Gilroy';font-weight:800;font-size:50px;">T<tspan x="2999.61px " y="1712.4px ">r</tspan>ibunal<tspan x="3164.46px " y="1712.4px ">s</tspan></text><text x="4462.86px" y="986.98px" style="font-family:'Gilroy-ExtraBold', 'Gilroy';font-weight:800;font-size:50px;">P<tspan x="4491.86px " y="986.98px ">r</tspan>int</text><text x="3003.91px" y="1342.84px" style="font-family:'Gilroy-ExtraBold', 'Gilroy';font-weight:800;font-size:50px;">C<tspan x="3039.61px " y="1342.84px ">o</tspan>ur<tspan x="3117.51px 3136.16px " y="1342.84px 1342.84px ">ts</tspan></text><g transform="matrix(1,0,0,1,-16836.6,-1779.63)"><text x="19809.9px" y="1845.86px" style="font-family:'Gilroy-ExtraBold', 'Gilroy';font-weight:800;font-size:50px;">A<tspan x="19843.1px 19874.3px 19900.3px " y="1845.86px 1845.86px 1845.86px ">dva</tspan>nc<tspan x="19986.4px 20015.1px " y="1845.86px 1845.86px ">ed</tspan></text><text x="19857.8px" y="1895.86px" style="font-family:'Gilroy-ExtraBold', 'Gilroy';font-weight:800;font-size:50px;">Filt<tspan x="19928.2px 19957.2px 19974.9px " y="1895.86px 1895.86px 1895.86px ">ers</tspan></text></g><text x="4459.31px" y="617.42px" style="font-family:'Gilroy-ExtraBold', 'Gilroy';font-weight:800;font-size:50px;">S<tspan x="4489.31px 4520.46px 4546.46px " y="617.42px 617.42px 617.42px ">ave</tspan></text><text x="2950.23px" y="1905.78px" style="font-family:'Gilroy-ExtraBold', 'Gilroy';font-weight:800;font-size:50px;">Judgment<tspan x="3189.83px " y="1905.78px ">s</tspan></text><text x="3030.93px" y="1536.22px" style="font-family:'Gilroy-ExtraBold', 'Gilroy';font-weight:800;font-size:50px;">A<tspan x="3064.18px 3090.48px 3109.13px " y="1536.22px 1536.22px 1536.22px ">cts</tspan></text><g transform="matrix(1,0,0,1,-16836.6,-1540.37)"><text x="19813.1px" y="1845.86px" style="font-family:'Gilroy-ExtraBold', 'Gilroy';font-weight:800;font-size:50px;">S<tspan x="19843.1px 19871.9px 19903px 19920.8px 19947.1px " y="1845.86px 1845.86px 1845.86px 1845.86px 1845.86px ">earch</tspan> a<tspan x="20019.6px " y="1845.86px ">s</tspan></text><text x="19831.2px" y="1895.86px" style="font-family:'Gilroy-ExtraBold', 'Gilroy';font-weight:800;font-size:50px;">per y<tspan x="19947.8px " y="1895.86px ">o</tspan>ur</text><text x="19851.7px" y="1945.86px" style="font-family:'Gilroy-ExtraBold', 'Gilroy';font-weight:800;font-size:50px;">c<tspan x="19878px " y="1945.86px ">h</tspan>oic<tspan x="19975.4px " y="1945.86px ">e</tspan></text></g><text x="4449.24px" y="810.795px" style="font-family:'Gilroy-ExtraBold', 'Gilroy';font-weight:800;font-size:50px;">Shar<tspan x="4556.54px " y="810.795px ">e</tspan></text><text x="2930.21px" y="2088.41px" style="font-family:'Gilroy-ExtraBold', 'Gilroy';font-weight:800;font-size:50px;">Sub<tspan x="3019.01px 3032.76px 3061.51px 3087.81px " y="2088.41px 2088.41px 2088.41px 2088.41px ">ject</tspan> W<tspan x="3168.61px 3181.36px 3204.26px " y="2088.41px 2088.41px 2088.41px ">ise</tspan></text><text x="2052.51px" y="244.113px" style="font-family:'Gilroy-ExtraBold', 'Gilroy';font-weight:800;font-size:50px;">S<tspan x="2082.51px 2111.26px 2142.41px 2160.16px 2186.46px " y="244.113px 244.113px 244.113px 244.113px 244.113px ">earch</tspan></text><rect x="2.917" y="668.579" width="716.127" height="181.155" style="fill:none;stroke:#ff3434;stroke-width:5.83px;"/><rect x="974.391" y="668.579" width="716.127" height="181.155" style="fill:none;stroke:#ff3434;stroke-width:5.83px;"/><rect x="3411.86" y="668.579" width="716.127" height="181.155" style="fill:none;stroke:#ff3434;stroke-width:5.83px;"/><rect x="1769.21" y="1202.91" width="716.127" height="181.155" style="fill:none;stroke:#ff3434;stroke-width:5.83px;"/><rect x="2809.93" y="1621.88" width="543.597" height="137.511" style="fill:none;stroke:#ff3434;stroke-width:5.83px;"/><rect x="4245.59" y="896.452" width="543.597" height="137.511" style="fill:none;stroke:#ff3434;stroke-width:5.83px;"/><rect x="2809.93" y="1252.32" width="543.597" height="137.511" style="fill:none;stroke:#ff3434;stroke-width:5.83px;"/><rect x="2819.66" y="2.917" width="543.597" height="137.511" style="fill:none;stroke:#ff3434;stroke-width:5.83px;"/><rect x="4245.59" y="526.892" width="543.597" height="137.511" style="fill:none;stroke:#ff3434;stroke-width:5.83px;"/><rect x="2809.93" y="1815.25" width="543.597" height="137.511" style="fill:none;stroke:#ff3434;stroke-width:5.83px;"/><rect x="2809.93" y="1445.69" width="543.597" height="137.511" style="fill:none;stroke:#ff3434;stroke-width:5.83px;"/><rect x="2819.66" y="223.515" width="543.597" height="229.295" style="fill:none;stroke:#ff3434;stroke-width:5.83px;"/><rect x="4245.59" y="720.266" width="543.597" height="137.511" style="fill:none;stroke:#ff3434;stroke-width:5.83px;"/><rect x="2809.93" y="1997.88" width="543.597" height="137.511" style="fill:none;stroke:#ff3434;stroke-width:5.83px;"/><rect x="1776" y="136.437" width="716.127" height="181.155" style="fill:none;stroke:#ff3434;stroke-width:5.83px;"/></svg>