<?xml version="1.0" encoding="UTF-8" standalone="no"?><!DOCTYPE svg PUBLIC "-//W3C//DTD SVG 1.1//EN" "http://www.w3.org/Graphics/SVG/1.1/DTD/svg11.dtd"><svg width="100%" height="100%" viewBox="0 0 1618 1031" version="1.1" xmlns="http://www.w3.org/2000/svg" xmlns:xlink="http://www.w3.org/1999/xlink" xml:space="preserve" xmlns:serif="http://www.serif.com/" style="fill-rule:evenodd;clip-rule:evenodd;stroke-linecap:round;stroke-linejoin:round;stroke-miterlimit:1.5;"><path d="M468.99,944.582l-466.964,-0c-0,-0 -0,15.839 -0,33.485c-0,26.092 21.152,47.244 47.244,47.244c89.531,-0 282.944,-0 372.476,-0c26.092,-0 47.244,-21.152 47.244,-47.244c-0,-17.646 -0,-33.485 -0,-33.485Z" style="fill:none;stroke:#bababa;stroke-width:3.68px;"/><text x="6.062px" y="35.55px" style="font-family:'Gilroy-Light', 'Gilroy';font-weight:300;font-size:50px;">S<tspan x="35.462px " y="35.55px ">e</tspan>ar<tspan x="111.562px " y="35.55px ">c</tspan>h Idea</text><path d="M471.6,136.914c0,-26.092 -21.151,-47.244 -47.244,-47.244l-371.985,-0c-26.092,-0 -47.244,21.152 -47.244,47.244c0,160.08 0,680.888 0,840.968c0,26.092 21.152,47.244 47.244,47.244c89.443,0 282.543,0 371.985,0c26.093,0 47.244,-21.152 47.244,-47.244c0,-160.08 0,-680.888 0,-840.968Z" style="fill:none;stroke:#000;stroke-width:10.25px;"/><path d="M421.477,433.773c0,-3.132 -1.244,-6.136 -3.459,-8.351c-2.215,-2.215 -5.219,-3.46 -8.352,-3.46c-56.281,0 -296.859,0 -353.141,0c-3.132,0 -6.136,1.245 -8.351,3.46c-2.215,2.215 -3.46,5.219 -3.46,8.351c0,9.774 0,23.59 0,33.364c0,3.132 1.245,6.137 3.46,8.352c2.215,2.215 5.219,3.459 8.351,3.459c56.282,-0 296.86,-0 353.141,-0c3.133,-0 6.137,-1.244 8.352,-3.459c2.215,-2.215 3.459,-5.22 3.459,-8.352c0,-9.774 0,-23.59 0,-33.364Z" style="fill:none;stroke:#a9a9a9;stroke-width:2.25px;"/><path d="M187.417,535.002c-0,-3.132 -1.245,-6.136 -3.46,-8.351c-2.215,-2.215 -5.219,-3.46 -8.352,-3.46l-119.08,0c-3.132,0 -6.136,1.245 -8.351,3.46c-2.215,2.215 -3.46,5.219 -3.46,8.351c0,1.598 0,3.238 0,4.836c0,3.132 1.245,6.136 3.46,8.351c2.215,2.215 5.219,3.46 8.351,3.46c26.852,-0 92.228,-0 119.08,-0c3.133,-0 6.137,-1.245 8.352,-3.46c2.215,-2.215 3.46,-5.219 3.46,-8.351c-0,-1.598 -0,-3.238 -0,-4.836Z" style="fill:none;stroke:#a9a9a9;stroke-width:2.25px;"/><path d="M302.826,535.002c0,-3.132 -1.244,-6.136 -3.459,-8.351c-2.215,-2.215 -5.219,-3.46 -8.352,-3.46c-17.731,0 -51.036,0 -68.767,0c-3.132,0 -6.136,1.245 -8.351,3.46c-2.215,2.215 -3.46,5.219 -3.46,8.351c0,1.598 0,3.238 0,4.836c0,3.132 1.245,6.136 3.46,8.351c2.215,2.215 5.219,3.46 8.351,3.46c17.731,-0 51.036,-0 68.767,-0c3.133,-0 6.137,-1.245 8.352,-3.46c2.215,-2.215 3.459,-5.219 3.459,-8.351c0,-1.598 0,-3.238 0,-4.836Z" style="fill:none;stroke:#a9a9a9;stroke-width:2.25px;"/><path d="M423.267,535.002c0,-6.523 -5.288,-11.811 -11.811,-11.811l-68.456,0c-6.523,0 -11.811,5.288 -11.811,11.811l0,4.836c0,6.523 5.288,11.811 11.811,11.811l68.456,-0c6.523,-0 11.811,-5.288 11.811,-11.811l0,-4.836Z" style="fill:none;stroke:#a9a9a9;stroke-width:2.25px;"/><path d="M154.898,307.389c-0,-1.796 -0.714,-3.518 -1.984,-4.788c-1.27,-1.27 -2.992,-1.984 -4.788,-1.984c-19.336,0 -74.648,0 -93.984,0c-1.796,0 -3.519,0.714 -4.789,1.984c-1.27,1.27 -1.983,2.992 -1.983,4.788c-0,0.001 -0,0.001 -0,0.001c-0,1.796 0.713,3.519 1.983,4.789c1.27,1.27 2.993,1.983 4.789,1.983c19.336,0 74.648,0 93.984,0c1.796,0 3.518,-0.713 4.788,-1.983c1.27,-1.27 1.984,-2.993 1.984,-4.789c-0,-0 -0,-0 -0,-0.001Z" style="fill:#a9a9a9;"/><path d="M419.433,307.389c-0,-1.796 -0.714,-3.518 -1.984,-4.788c-1.27,-1.27 -2.992,-1.984 -4.788,-1.984c-19.337,0 -74.648,0 -93.984,0c-1.797,0 -3.519,0.714 -4.789,1.984c-1.27,1.27 -1.983,2.992 -1.983,4.788c-0,0.001 -0,0.001 -0,0.001c-0,1.796 0.713,3.519 1.983,4.789c1.27,1.27 2.992,1.983 4.789,1.983c19.336,0 74.647,0 93.984,0c1.796,0 3.518,-0.713 4.788,-1.983c1.27,-1.27 1.984,-2.993 1.984,-4.789c-0,-0 -0,-0 -0,-0.001Z" style="fill:none;stroke:#a9a9a9;stroke-width:2.25px;"/><path d="M46.858,330.328l111.844,0" style="fill:none;stroke:#a9a9a9;stroke-width:2.25px;"/><path d="M11.152,331.208l455.207,-0" style="fill:none;stroke:#a9a9a9;stroke-opacity:0.33;stroke-width:0.82px;"/><rect x="47.102" y="162.022" width="214.126" height="25.935"/><rect x="43.368" y="967.788" width="68.892" height="25.935"/><rect x="203.998" y="967.788" width="68.892" height="25.935" style="fill:none;stroke:#000;stroke-width:0.82px;"/><rect x="372.427" y="967.788" width="68.892" height="25.935" style="fill:none;stroke:#000;stroke-width:0.82px;"/><g transform="matrix(1,0,0,1,721.309,87.8301)"><text x="0px" y="36.5px" style="font-family:'Gilroy-Light', 'Gilroy';font-weight:300;font-size:50px;">S<tspan x="29.4px " y="36.5px ">e</tspan>ar<tspan x="105.5px " y="36.5px ">c</tspan>h f<tspan x="189.1px " y="36.5px ">e</tspan>atur<tspan x="312.2px 340.65px 363.05px " y="36.5px 36.5px 36.5px ">es,</tspan> us<tspan x="438.4px " y="36.5px ">i</tspan>ng t<tspan x="539.85px 572.1px 603.85px " y="36.5px 36.5px 36.5px ">abs</tspan>/ï¬lt<tspan x="706.1px 735.55px 750.45px 772.85px " y="36.5px 36.5px 36.5px 36.5px ">ers,</tspan> e<tspan x="826.05px 843.35px 869.9px " y="36.5px 36.5px 36.5px ">tc.</tspan></text><text x="0px" y="186.5px" style="font-family:'Gilroy-Light', 'Gilroy';font-weight:300;font-size:50px;">S<tspan x="29.4px " y="186.5px ">e</tspan>ar<tspan x="105.5px " y="186.5px ">c</tspan>h f<tspan x="189.1px " y="186.5px ">o</tspan>r what y<tspan x="404.5px " y="186.5px ">o</tspan>u r<tspan x="491px " y="186.5px ">e</tspan>quir<tspan x="605.5px " y="186.5px ">e</tspan> and r<tspan x="768.75px 797.2px 819.85px " y="186.5px 186.5px 186.5px ">esu</tspan>lt<tspan x="875.55px " y="186.5px ">s</tspan></text><text x="0px" y="236.5px" style="font-family:'Gilroy-Light', 'Gilroy';font-weight:300;font-size:50px;">pop up underneath, while giving y<tspan x="784.3px " y="236.5px ">o</tspan>u</text><text x="0px" y="286.5px" style="font-family:'Gilroy-Light', 'Gilroy';font-weight:300;font-size:50px;">the chanc<tspan x="234.3px " y="286.5px ">e</tspan> t<tspan x="294.4px " y="286.5px ">o</tspan> s<tspan x="360.2px " y="286.5px ">t</tspan>ill mak<tspan x="519.7px " y="286.5px ">e</tspan> change<tspan x="740.05px " y="286.5px ">s</tspan> t<tspan x="793.6px " y="286.5px ">o</tspan></text><text x="0px" y="336.5px" style="font-family:'Gilroy-Light', 'Gilroy';font-weight:300;font-size:50px;">y<tspan x="24.5px " y="336.5px ">o</tspan>ur s<tspan x="134.65px " y="336.5px ">e</tspan>ar<tspan x="210.75px " y="336.5px ">c</tspan>h.</text></g></svg>