<?xml version="1.0" encoding="UTF-8" standalone="no"?><!DOCTYPE svg PUBLIC "-//W3C//DTD SVG 1.1//EN" "http://www.w3.org/Graphics/SVG/1.1/DTD/svg11.dtd"><svg width="100%" height="100%" viewBox="0 0 2980 961" version="1.1" xmlns="http://www.w3.org/2000/svg" xmlns:xlink="http://www.w3.org/1999/xlink" xml:space="preserve" xmlns:serif="http://www.serif.com/" style="fill-rule:evenodd;clip-rule:evenodd;stroke-linecap:round;stroke-linejoin:round;stroke-miterlimit:1.5;"><path d="M1049.7,874.762l-466.964,0l-0,33.486c-0,26.092 21.152,47.244 47.244,47.244c89.532,-0 282.944,-0 372.476,-0c26.092,-0 47.244,-21.152 47.244,-47.244c-0,-17.647 -0,-33.486 -0,-33.486Z" style="fill:none;stroke:#bababa;stroke-width:3.68px;"/><path d="M1690.92,869.226l-466.964,0c-0,0 -0,15.839 -0,33.485c-0,26.093 21.152,47.244 47.244,47.244l372.476,0c26.092,0 47.244,-21.151 47.244,-47.244c0,-17.646 0,-33.485 0,-33.485Z" style="fill:none;stroke:#bababa;stroke-width:3.68px;"/><path d="M2364.8,869.226l-466.964,0l0,33.485c0,26.093 21.152,47.244 47.244,47.244c89.532,0 282.945,0 372.476,0c26.093,0 47.244,-21.151 47.244,-47.244c0,-17.646 0,-33.485 0,-33.485Z" style="fill:none;stroke:#bababa;stroke-width:3.68px;"/><path d="M1045.64,67.095c0,-26.092 -21.152,-47.244 -47.244,-47.244l-371.985,-0c-26.092,-0 -47.244,21.152 -47.244,47.244c-0,160.08 -0,680.888 -0,840.968c-0,26.092 21.152,47.244 47.244,47.244c89.443,-0 282.542,-0 371.985,-0c26.092,-0 47.244,-21.152 47.244,-47.244c0,-160.08 0,-680.888 0,-840.968Z" style="fill:none;stroke:#000;stroke-width:10.25px;"/><path d="M1001.95,194.958c-0,-3.133 -1.245,-6.137 -3.46,-8.352c-2.215,-2.215 -5.219,-3.459 -8.352,-3.459c-56.281,-0 -296.859,-0 -353.141,-0c-3.132,-0 -6.136,1.244 -8.351,3.459c-2.215,2.215 -3.46,5.219 -3.46,8.352c0,9.773 0,23.59 0,33.363c0,3.133 1.245,6.137 3.46,8.352c2.215,2.215 5.219,3.459 8.351,3.459c56.282,0 296.86,0 353.141,0c3.133,0 6.137,-1.244 8.352,-3.459c2.215,-2.215 3.46,-5.219 3.46,-8.352c-0,-9.773 -0,-23.59 -0,-33.363Z" style="fill:none;stroke:#a9a9a9;stroke-width:2.25px;"/><path d="M2073.93,214.76c0,-3.132 -1.244,-6.137 -3.459,-8.352c-2.215,-2.215 -5.219,-3.459 -8.352,-3.459c-26.852,-0 -92.228,-0 -119.08,-0c-3.133,-0 -6.137,1.244 -8.352,3.459c-2.215,2.215 -3.459,5.22 -3.459,8.352c-0,1.598 -0,3.238 -0,4.835c-0,3.133 1.244,6.137 3.459,8.352c2.215,2.215 5.219,3.459 8.352,3.459c26.852,0 92.228,0 119.08,0c3.133,0 6.137,-1.244 8.352,-3.459c2.215,-2.215 3.459,-5.219 3.459,-8.352c0,-1.597 0,-3.237 0,-4.835Z" style="fill:none;stroke:#a9a9a9;stroke-width:2.25px;"/><path d="M2189.34,214.76c-0,-3.132 -1.245,-6.137 -3.46,-8.352c-2.215,-2.215 -5.219,-3.459 -8.351,-3.459c-17.731,-0 -51.036,-0 -68.767,-0c-3.133,-0 -6.137,1.244 -8.352,3.459c-2.215,2.215 -3.459,5.22 -3.459,8.352c-0,1.598 -0,3.238 -0,4.835c-0,3.133 1.244,6.137 3.459,8.352c2.215,2.215 5.219,3.459 8.352,3.459c17.731,0 51.036,0 68.767,0c3.132,0 6.136,-1.244 8.351,-3.459c2.215,-2.215 3.46,-5.219 3.46,-8.352c-0,-1.597 -0,-3.237 -0,-4.835Z" style="fill:none;stroke:#a9a9a9;stroke-width:2.25px;"/><path d="M2309.78,214.76c-0,-6.523 -5.288,-11.811 -11.811,-11.811l-68.456,-0c-6.523,0 -11.811,5.288 -11.811,11.811l-0,4.835c-0,6.523 5.288,11.811 11.811,11.811l68.456,0c6.523,0 11.811,-5.288 11.811,-11.811l-0,-4.835Z" style="fill:none;stroke:#a9a9a9;stroke-width:2.25px;"/><path d="M2041.29,160.663c0,-1.796 -0.713,-3.518 -1.983,-4.788c-1.27,-1.27 -2.993,-1.984 -4.789,-1.984c-19.336,0 -74.648,0 -93.984,0c-1.796,0 -3.518,0.714 -4.788,1.984c-1.27,1.27 -1.984,2.992 -1.984,4.788c0,0 0,0.001 0,0.001c0,1.796 0.714,3.519 1.984,4.789c1.27,1.27 2.992,1.983 4.788,1.983c19.336,0 74.648,0 93.984,0c1.796,0 3.519,-0.713 4.789,-1.983c1.27,-1.27 1.983,-2.993 1.983,-4.789c0,-0 0,-0.001 0,-0.001Z" style="fill:#a9a9a9;"/><path d="M735.37,134.996c0,-1.796 -0.713,-3.518 -1.983,-4.788c-1.27,-1.27 -2.993,-1.984 -4.789,-1.984c-19.336,0 -74.648,0 -93.984,0c-1.796,0 -3.519,0.714 -4.789,1.984c-1.27,1.27 -1.983,2.992 -1.983,4.788c0,0.001 0,0.001 0,0.001c0,1.796 0.713,3.519 1.983,4.789c1.27,1.27 2.993,1.983 4.789,1.983c19.336,0 74.648,0 93.984,0c1.796,0 3.519,-0.713 4.789,-1.983c1.27,-1.27 1.983,-2.993 1.983,-4.789c0,-0 0,-0 0,-0.001Z" style="fill:#a9a9a9;"/><path d="M150.042,129.175c-0,-1.796 -0.714,-3.519 -1.984,-4.789c-1.27,-1.27 -2.992,-1.983 -4.788,-1.983c-19.336,-0 -74.648,-0 -93.984,-0c-1.796,-0 -3.519,0.713 -4.789,1.983c-1.27,1.27 -1.983,2.993 -1.983,4.789c-0,0 -0,0 -0,0.001c-0,1.796 0.713,3.518 1.983,4.788c1.27,1.27 2.993,1.984 4.789,1.984c19.336,-0 74.648,-0 93.984,-0c1.796,-0 3.518,-0.714 4.788,-1.984c1.27,-1.27 1.984,-2.992 1.984,-4.788c-0,-0.001 -0,-0.001 -0,-0.001Z" style="fill:#a9a9a9;"/><path d="M735.37,288.614c0,-1.796 -0.713,-3.518 -1.983,-4.788c-1.27,-1.27 -2.993,-1.984 -4.789,-1.984c-19.336,0 -74.648,0 -93.984,0c-1.796,0 -3.519,0.714 -4.789,1.984c-1.27,1.27 -1.983,2.992 -1.983,4.788c0,0 0,0.001 0,0.001c0,1.796 0.713,3.518 1.983,4.788c1.27,1.27 2.993,1.984 4.789,1.984c19.336,-0 74.648,-0 93.984,-0c1.796,-0 3.519,-0.714 4.789,-1.984c1.27,-1.27 1.983,-2.992 1.983,-4.788c0,-0 0,-0.001 0,-0.001Z"/><path d="M965.338,525.29c-0,-1.081 -0.429,-2.117 -1.193,-2.881c-0.764,-0.764 -1.801,-1.193 -2.881,-1.193c-35.626,-0 -293.722,-0 -329.348,-0c-1.08,-0 -2.117,0.429 -2.881,1.193c-0.764,0.764 -1.193,1.8 -1.193,2.881c0,0.001 0,0.002 0,0.002c0,1.081 0.429,2.117 1.193,2.881c0.764,0.764 1.801,1.193 2.881,1.193c35.626,0 293.722,0 329.348,0c1.08,0 2.117,-0.429 2.881,-1.193c0.764,-0.764 1.193,-1.8 1.193,-2.881c-0,-0 -0,-0.001 -0,-0.002Z"/><path d="M965.338,451.144c-0,-1.081 -0.429,-2.117 -1.193,-2.881c-0.764,-0.764 -1.801,-1.193 -2.881,-1.193c-35.626,-0 -293.722,-0 -329.348,-0c-1.08,-0 -2.117,0.429 -2.881,1.193c-0.764,0.764 -1.193,1.8 -1.193,2.881c0,0.001 0,0.002 0,0.002c0,1.081 0.429,2.117 1.193,2.881c0.764,0.764 1.801,1.193 2.881,1.193c35.626,0 293.722,0 329.348,0c1.08,0 2.117,-0.429 2.881,-1.193c0.764,-0.764 1.193,-1.8 1.193,-2.881c-0,-0 -0,-0.001 -0,-0.002Z"/><path d="M965.338,367.112c-0,-1.081 -0.429,-2.117 -1.193,-2.881c-0.764,-0.764 -1.801,-1.193 -2.881,-1.193c-35.626,-0 -293.722,-0 -329.348,-0c-1.08,-0 -2.117,0.429 -2.881,1.193c-0.764,0.764 -1.193,1.8 -1.193,2.881c0,0.001 0,0.002 0,0.002c0,1.081 0.429,2.117 1.193,2.881c0.764,0.764 1.801,1.193 2.881,1.193c35.626,0 293.722,0 329.348,0c1.08,0 2.117,-0.429 2.881,-1.193c0.764,-0.764 1.193,-1.8 1.193,-2.881c-0,-0 -0,-0.001 -0,-0.002Z"/><path d="M965.338,716.558c-0,-1.08 -0.429,-2.116 -1.193,-2.88c-0.764,-0.764 -1.801,-1.194 -2.881,-1.194c-35.626,0 -293.722,0 -329.348,0c-1.08,0 -2.117,0.43 -2.881,1.194c-0.764,0.764 -1.193,1.8 -1.193,2.88c0,0.001 0,0.002 0,0.003c0,1.08 0.429,2.116 1.193,2.881c0.764,0.764 1.801,1.193 2.881,1.193c35.626,-0 293.722,-0 329.348,-0c1.08,-0 2.117,-0.429 2.881,-1.193c0.764,-0.765 1.193,-1.801 1.193,-2.881c-0,-0.001 -0,-0.002 -0,-0.003Z"/><path d="M774.459,555.682c-0,-2.25 -1.824,-4.074 -4.074,-4.074c-21.06,0 -117.41,0 -138.469,0c-2.25,0 -4.074,1.824 -4.074,4.074c0,0.001 0,0.002 0,0.003c0,2.25 1.824,4.074 4.074,4.074l138.469,-0c2.25,-0 4.074,-1.824 4.074,-4.074c-0,-0.001 -0,-0.002 -0,-0.003Z"/><path d="M774.459,481.536c-0,-2.25 -1.824,-4.074 -4.074,-4.074c-21.06,0 -117.41,0 -138.469,0c-2.25,0 -4.074,1.824 -4.074,4.074c0,0.001 0,0.002 0,0.003c0,2.25 1.824,4.074 4.074,4.074l138.469,-0c2.25,-0 4.074,-1.824 4.074,-4.074c-0,-0.001 -0,-0.002 -0,-0.003Z"/><path d="M774.459,397.504c-0,-2.25 -1.824,-4.074 -4.074,-4.074c-21.06,0 -117.41,0 -138.469,0c-2.25,0 -4.074,1.824 -4.074,4.074c0,0.001 0,0.002 0,0.003c0,2.25 1.824,4.074 4.074,4.074l138.469,-0c2.25,-0 4.074,-1.824 4.074,-4.074c-0,-0.001 -0,-0.002 -0,-0.003Z"/><path d="M774.459,746.951c-0,-2.25 -1.824,-4.074 -4.074,-4.074c-21.06,-0 -117.41,-0 -138.469,-0c-2.25,-0 -4.074,1.824 -4.074,4.074c0,0 0,0.001 0,0.002c0,2.25 1.824,4.074 4.074,4.074l138.469,-0c2.25,-0 4.074,-1.824 4.074,-4.074c-0,-0.001 -0,-0.002 -0,-0.002Z"/><path d="M876.372,646.454c-0,-2.25 -1.824,-4.074 -4.074,-4.074c-29.561,-0 -210.822,-0 -240.382,-0c-2.25,-0 -4.074,1.824 -4.074,4.074c0,0 0,0.001 0,0.002c0,2.25 1.824,4.074 4.074,4.074c29.56,0 210.821,0 240.382,0c2.25,0 4.074,-1.824 4.074,-4.074c-0,-0.001 -0,-0.002 -0,-0.002Z"/><path d="M876.372,837.722c-0,-2.25 -1.824,-4.074 -4.074,-4.074c-29.561,-0 -210.822,-0 -240.382,-0c-2.25,-0 -4.074,1.824 -4.074,4.074c0,0.001 0,0.002 0,0.002c0,2.25 1.824,4.074 4.074,4.074c29.56,0 210.821,0 240.382,0c2.25,0 4.074,-1.824 4.074,-4.074c-0,-0 -0,-0.001 -0,-0.002Z"/><path d="M965.338,619.911c-0,-1.08 -0.429,-2.117 -1.193,-2.881c-0.764,-0.764 -1.801,-1.193 -2.881,-1.193c-35.626,0 -293.722,0 -329.348,0c-1.08,0 -2.117,0.429 -2.881,1.193c-0.764,0.764 -1.193,1.801 -1.193,2.881c0,0.001 0,0.002 0,0.003c0,1.08 0.429,2.116 1.193,2.88c0.764,0.764 1.801,1.193 2.881,1.193c35.626,0 293.722,0 329.348,0c1.08,0 2.117,-0.429 2.881,-1.193c0.764,-0.764 1.193,-1.8 1.193,-2.88c-0,-0.001 -0,-0.002 -0,-0.003Z"/><path d="M965.338,811.179c-0,-1.08 -0.429,-2.116 -1.193,-2.88c-0.764,-0.764 -1.801,-1.194 -2.881,-1.194c-35.626,0 -293.722,0 -329.348,0c-1.08,0 -2.117,0.43 -2.881,1.194c-0.764,0.764 -1.193,1.8 -1.193,2.88c0,0.001 0,0.002 0,0.003c0,1.08 0.429,2.117 1.193,2.881c0.764,0.764 1.801,1.193 2.881,1.193c35.626,-0 293.722,-0 329.348,-0c1.08,-0 2.117,-0.429 2.881,-1.193c0.764,-0.764 1.193,-1.801 1.193,-2.881c-0,-0.001 -0,-0.002 -0,-0.003Z"/><path d="M2305.82,160.663c-0,-1.796 -0.714,-3.518 -1.984,-4.788c-1.27,-1.27 -2.992,-1.984 -4.788,-1.984c-19.336,0 -74.648,0 -93.984,0c-1.796,0 -3.519,0.714 -4.789,1.984c-1.27,1.27 -1.983,2.992 -1.983,4.788c-0,0 -0,0.001 -0,0.001c-0,1.796 0.713,3.519 1.983,4.789c1.27,1.27 2.993,1.983 4.789,1.983c19.336,0 74.648,0 93.984,0c1.796,0 3.518,-0.713 4.788,-1.983c1.27,-1.27 1.984,-2.993 1.984,-4.789c-0,-0 -0,-0.001 -0,-0.001Z" style="fill:none;stroke:#a9a9a9;stroke-width:2.25px;"/><path d="M999.905,134.996c-0,-1.796 -0.714,-3.518 -1.984,-4.788c-1.27,-1.27 -2.992,-1.984 -4.788,-1.984c-19.337,0 -74.648,0 -93.984,0c-1.796,0 -3.519,0.714 -4.789,1.984c-1.27,1.27 -1.983,2.992 -1.983,4.788c-0,0.001 -0,0.001 -0,0.001c-0,1.796 0.713,3.519 1.983,4.789c1.27,1.27 2.993,1.983 4.789,1.983c19.336,0 74.647,0 93.984,0c1.796,0 3.518,-0.713 4.788,-1.983c1.27,-1.27 1.984,-2.993 1.984,-4.789c-0,-0 -0,-0 -0,-0.001Z" style="fill:none;stroke:#a9a9a9;stroke-width:2.25px;"/><path d="M414.576,129.175c0,-1.796 -0.713,-3.519 -1.983,-4.789c-1.27,-1.27 -2.993,-1.983 -4.789,-1.983c-19.336,-0 -74.648,-0 -93.984,-0c-1.796,-0 -3.518,0.713 -4.788,1.983c-1.27,1.27 -1.984,2.993 -1.984,4.789c0,0 0,0 0,0.001c0,1.796 0.714,3.518 1.984,4.788c1.27,1.27 2.992,1.984 4.788,1.984c19.336,-0 74.648,-0 93.984,-0c1.796,-0 3.519,-0.714 4.789,-1.984c1.27,-1.27 1.983,-2.992 1.983,-4.788c0,-0.001 0,-0.001 0,-0.001Z" style="fill:none;stroke:#a9a9a9;stroke-width:2.25px;"/><path d="M1933.25,183.602l111.843,0" style="fill:none;stroke:#a9a9a9;stroke-width:2.25px;"/><path d="M627.33,157.935l111.844,0" style="fill:none;stroke:#a9a9a9;stroke-width:2.25px;"/><path d="M42.002,152.114l111.844,-0" style="fill:none;stroke:#a9a9a9;stroke-width:2.25px;"/><path d="M1897.54,184.481l455.207,0" style="fill:none;stroke:#a9a9a9;stroke-opacity:0.33;stroke-width:0.82px;"/><path d="M591.624,158.814l455.207,0" style="fill:none;stroke:#a9a9a9;stroke-opacity:0.33;stroke-width:0.82px;"/><path d="M6.296,152.993l455.207,-0" style="fill:none;stroke:#a9a9a9;stroke-opacity:0.33;stroke-width:0.82px;"/><path d="M591.624,404.384l455.207,-0" style="fill:none;stroke:#a9a9a9;stroke-opacity:0.33;stroke-width:0.82px;"/><path d="M627.414,326.362l328.549,-0" style="fill:none;stroke:#210000;stroke-width:0.82px;"/><rect x="624.077" y="897.969" width="68.892" height="25.935"/><rect x="1265.3" y="892.432" width="68.892" height="25.935"/><rect x="1939.18" y="892.432" width="68.892" height="25.935"/><rect x="784.707" y="897.969" width="68.892" height="25.935" style="fill:none;stroke:#000;stroke-width:0.82px;"/><rect x="1425.93" y="892.432" width="68.892" height="25.935" style="fill:none;stroke:#000;stroke-width:0.82px;"/><rect x="2099.81" y="892.432" width="68.892" height="25.935" style="fill:none;stroke:#000;stroke-width:0.82px;"/><rect x="953.136" y="897.969" width="68.892" height="25.935" style="fill:none;stroke:#000;stroke-width:0.82px;"/><rect x="1594.36" y="892.432" width="68.892" height="25.935" style="fill:none;stroke:#000;stroke-width:0.82px;"/><rect x="2268.24" y="892.432" width="68.892" height="25.935" style="fill:none;stroke:#000;stroke-width:0.82px;"/><path d="M1692.12,58.705c-0,-26.092 -21.152,-47.244 -47.244,-47.244c-89.443,-0 -282.542,-0 -371.985,-0c-26.092,-0 -47.244,21.152 -47.244,47.244c-0,160.08 -0,680.888 -0,840.968c-0,26.092 21.152,47.244 47.244,47.244c89.443,-0 282.542,-0 371.985,-0c26.092,-0 47.244,-21.152 47.244,-47.244c0,-160.08 0,-680.888 0,-840.968Z" style="fill:none;stroke:#000;stroke-width:10.25px;"/><path d="M1647.44,120.405c-0,-3.132 -1.245,-6.137 -3.46,-8.352c-2.215,-2.215 -5.219,-3.459 -8.351,-3.459c-56.282,-0 -296.86,-0 -353.142,-0c-3.132,-0 -6.136,1.244 -8.351,3.459c-2.215,2.215 -3.46,5.22 -3.46,8.352c0,9.774 0,23.59 0,33.364c0,3.132 1.245,6.136 3.46,8.351c2.215,2.215 5.219,3.46 8.351,3.46c56.282,-0 296.86,-0 353.142,-0c3.132,-0 6.136,-1.245 8.351,-3.46c2.215,-2.215 3.46,-5.219 3.46,-8.351c-0,-9.774 -0,-23.59 -0,-33.364Z" style="fill:none;stroke:#a9a9a9;stroke-width:2.25px;"/><path d="M2327.52,74.064c-0,-3.133 -1.245,-6.137 -3.46,-8.352c-2.215,-2.215 -5.219,-3.459 -8.351,-3.459c-59.125,-0 -322.438,-0 -381.563,-0c-3.132,-0 -6.136,1.244 -8.351,3.459c-2.215,2.215 -3.46,5.219 -3.46,8.352c0,9.774 0,23.59 0,33.363c0,3.133 1.245,6.137 3.46,8.352c2.215,2.215 5.219,3.459 8.351,3.459c59.125,0 322.438,0 381.563,0c3.132,0 6.136,-1.244 8.351,-3.459c2.215,-2.215 3.46,-5.219 3.46,-8.352c-0,-9.773 -0,-23.589 -0,-33.363Z" style="fill:none;stroke:#a9a9a9;stroke-width:2.25px;"/><path d="M1415.4,237.093c0,-6.523 -5.288,-11.811 -11.811,-11.811c-27.762,-0 -96.914,-0 -124.676,-0c-6.523,-0 -11.811,5.288 -11.811,11.811c-0,27.785 -0,97.03 -0,124.815c-0,6.523 5.288,11.811 11.811,11.811c27.762,0 96.914,0 124.676,0c6.523,0 11.811,-5.288 11.811,-11.811c0,-27.785 0,-97.03 0,-124.815Z" style="fill:none;stroke:#a9a9a9;stroke-width:2.25px;"/><path d="M2025.81,283.384c0,-6.523 -5.288,-11.811 -11.811,-11.811c-17.93,0 -51.822,0 -69.751,0c-6.523,0 -11.811,5.288 -11.811,11.811c-0,17.948 -0,51.892 -0,69.84c-0,6.523 5.288,11.811 11.811,11.811c17.929,-0 51.821,-0 69.751,-0c6.523,-0 11.811,-5.288 11.811,-11.811c0,-17.948 0,-51.892 0,-69.84Z" style="fill:none;stroke:#a9a9a9;stroke-width:2.25px;"/><path d="M2025.81,403.995c0,-6.524 -5.288,-11.811 -11.811,-11.811c-17.93,-0 -51.822,-0 -69.751,-0c-6.523,-0 -11.811,5.287 -11.811,11.811c-0,17.947 -0,51.891 -0,69.839c-0,6.523 5.288,11.811 11.811,11.811c17.929,-0 51.821,-0 69.751,-0c6.523,-0 11.811,-5.288 11.811,-11.811c0,-17.948 0,-51.892 0,-69.839Z" style="fill:none;stroke:#a9a9a9;stroke-width:2.25px;"/><path d="M2025.81,644.968c0,-6.523 -5.288,-11.811 -11.811,-11.811c-17.93,-0 -51.822,-0 -69.751,-0c-6.523,-0 -11.811,5.288 -11.811,11.811c-0,17.947 -0,51.891 -0,69.839c-0,6.523 5.288,11.811 11.811,11.811c17.929,0 51.821,0 69.751,0c6.523,0 11.811,-5.288 11.811,-11.811c0,-17.948 0,-51.892 0,-69.839Z" style="fill:none;stroke:#a9a9a9;stroke-width:2.25px;"/><path d="M2025.81,527.571c0,-6.523 -5.288,-11.811 -11.811,-11.811c-17.93,-0 -51.822,-0 -69.751,-0c-6.523,-0 -11.811,5.288 -11.811,11.811c-0,17.947 -0,51.891 -0,69.839c-0,6.523 5.288,11.811 11.811,11.811c17.929,-0 51.821,-0 69.751,-0c6.523,-0 11.811,-5.288 11.811,-11.811c0,-17.948 0,-51.892 0,-69.839Z" style="fill:none;stroke:#a9a9a9;stroke-width:2.25px;"/><path d="M2025.81,768.544c0,-6.523 -5.288,-11.811 -11.811,-11.811c-17.93,-0 -51.822,-0 -69.751,-0c-6.523,-0 -11.811,5.288 -11.811,11.811c-0,17.947 -0,51.892 -0,69.839c-0,6.523 5.288,11.811 11.811,11.811c17.929,0 51.821,0 69.751,0c6.523,0 11.811,-5.288 11.811,-11.811c0,-17.947 0,-51.892 0,-69.839Z" style="fill:none;stroke:#a9a9a9;stroke-width:2.25px;"/><path d="M1415.4,448.408c0,-6.523 -5.288,-11.811 -11.811,-11.811c-27.762,0 -96.914,0 -124.676,0c-6.523,0 -11.811,5.288 -11.811,11.811c-0,27.785 -0,97.031 -0,124.816c-0,6.523 5.288,11.811 11.811,11.811c27.762,-0 96.914,-0 124.676,-0c6.523,-0 11.811,-5.288 11.811,-11.811c0,-27.785 0,-97.031 0,-124.816Z" style="fill:none;stroke:#a9a9a9;stroke-width:2.25px;"/><path d="M1415.4,646.13c0,-6.523 -5.288,-11.811 -11.811,-11.811c-27.762,0 -96.914,0 -124.676,0c-6.523,0 -11.811,5.288 -11.811,11.811c-0,27.785 -0,97.031 -0,124.816c-0,6.523 5.288,11.811 11.811,11.811c27.762,0 96.914,0 124.676,0c6.523,0 11.811,-5.288 11.811,-11.811c0,-27.785 0,-97.031 0,-124.816Z" style="fill:none;stroke:#a9a9a9;stroke-width:2.25px;"/><path d="M1663.4,236.297c0,-2.25 -1.824,-4.074 -4.074,-4.074c-27.409,-0 -184.669,-0 -212.079,-0c-2.25,-0 -4.074,1.824 -4.074,4.074c0,0.001 0,0.002 0,0.002c0,2.25 1.824,4.074 4.074,4.074c27.41,0 184.67,0 212.079,0c2.25,0 4.074,-1.824 4.074,-4.074c0,-0 0,-0.001 0,-0.002Z"/><path d="M1663.4,447.612c0,-2.25 -1.824,-4.074 -4.074,-4.074c-27.409,0 -184.669,0 -212.079,0c-2.25,0 -4.074,1.824 -4.074,4.074c0,0.001 0,0.002 0,0.003c0,2.25 1.824,4.074 4.074,4.074c27.41,-0 184.67,-0 212.079,-0c2.25,-0 4.074,-1.824 4.074,-4.074c0,-0.001 0,-0.002 0,-0.003Z"/><path d="M1663.4,645.335c0,-2.25 -1.824,-4.074 -4.074,-4.074c-27.409,-0 -184.669,-0 -212.079,-0c-2.25,-0 -4.074,1.824 -4.074,4.074c0,0 0,0.001 0,0.002c0,2.25 1.824,4.074 4.074,4.074c27.41,0 184.67,0 212.079,0c2.25,0 4.074,-1.824 4.074,-4.074c0,-0.001 0,-0.002 0,-0.002Z"/><path d="M2189.36,288.933c-0,-2.25 -1.824,-4.074 -4.074,-4.074c-21.06,-0 -117.41,-0 -138.469,-0c-2.25,-0 -4.074,1.824 -4.074,4.074c0,0.001 0,0.001 0,0.002c0,2.25 1.824,4.074 4.074,4.074c21.059,0 117.409,0 138.469,0c2.25,0 4.074,-1.824 4.074,-4.074c-0,-0.001 -0,-0.001 -0,-0.002Z"/><path d="M2189.36,409.543c-0,-2.25 -1.824,-4.074 -4.074,-4.074c-21.06,-0 -117.41,-0 -138.469,-0c-2.25,-0 -4.074,1.824 -4.074,4.074c0,0.001 0,0.002 0,0.002c0,2.25 1.824,4.074 4.074,4.074c21.059,0 117.409,0 138.469,0c2.25,0 4.074,-1.824 4.074,-4.074c-0,-0 -0,-0.001 -0,-0.002Z"/><path d="M2189.36,650.516c-0,-2.25 -1.824,-4.074 -4.074,-4.074c-21.06,0 -117.41,0 -138.469,0c-2.25,0 -4.074,1.824 -4.074,4.074c0,0.001 0,0.002 0,0.003c0,2.25 1.824,4.074 4.074,4.074c21.059,-0 117.409,-0 138.469,-0c2.25,-0 4.074,-1.824 4.074,-4.074c-0,-0.001 -0,-0.002 -0,-0.003Z"/><path d="M2189.36,533.119c-0,-2.25 -1.824,-4.074 -4.074,-4.074c-21.06,0 -117.41,0 -138.469,0c-2.25,0 -4.074,1.824 -4.074,4.074c0,0.001 0,0.002 0,0.003c0,2.25 1.824,4.074 4.074,4.074c21.059,-0 117.409,-0 138.469,-0c2.25,-0 4.074,-1.824 4.074,-4.074c-0,-0.001 -0,-0.002 -0,-0.003Z"/><path d="M2189.36,774.092c-0,-2.25 -1.824,-4.074 -4.074,-4.074c-21.06,0 -117.41,0 -138.469,0c-2.25,0 -4.074,1.824 -4.074,4.074c0,0.001 0,0.002 0,0.003c0,2.25 1.824,4.074 4.074,4.074c21.059,-0 117.409,-0 138.469,-0c2.25,-0 4.074,-1.824 4.074,-4.074c-0,-0.001 -0,-0.002 -0,-0.003Z"/><path d="M1589.79,478.005c-0,-2.25 -1.824,-4.074 -4.074,-4.074c-21.059,-0 -117.409,-0 -138.469,-0c-2.25,-0 -4.074,1.824 -4.074,4.074c0,0.001 0,0.001 0,0.002c0,2.25 1.824,4.074 4.074,4.074c21.06,0 117.41,0 138.469,0c2.25,0 4.074,-1.824 4.074,-4.074c-0,-0.001 -0,-0.001 -0,-0.002Z"/><path d="M1589.79,675.727c-0,-2.25 -1.824,-4.074 -4.074,-4.074c-21.059,-0 -117.409,-0 -138.469,-0c-2.25,-0 -4.074,1.824 -4.074,4.074c0,0.001 0,0.002 0,0.002c0,2.25 1.824,4.074 4.074,4.074c21.06,0 117.41,0 138.469,0c2.25,0 4.074,-1.824 4.074,-4.074c-0,-0 -0,-0.001 -0,-0.002Z"/><path d="M1589.79,351.339c-0,-8.734 -7.08,-15.814 -15.814,-15.814c-28.189,0 -86.8,0 -114.989,0c-8.733,0 -15.814,7.08 -15.814,15.814c0,0.001 0,0.001 0,0.002c0,8.734 7.081,15.814 15.814,15.814l114.989,0c8.734,0 15.814,-7.08 15.814,-15.814c-0,-0.001 -0,-0.001 -0,-0.002Z"/><path d="M1589.79,562.655c-0,-8.734 -7.08,-15.814 -15.814,-15.814c-28.189,-0 -86.8,-0 -114.989,-0c-8.733,-0 -15.814,7.08 -15.814,15.814c0,0 0,0.001 0,0.002c0,8.734 7.081,15.814 15.814,15.814l114.989,-0c8.734,-0 15.814,-7.08 15.814,-15.814c-0,-0.001 -0,-0.002 -0,-0.002Z"/><path d="M1589.79,760.377c-0,-8.734 -7.08,-15.814 -15.814,-15.814c-28.189,-0 -86.8,-0 -114.989,-0c-8.733,-0 -15.814,7.08 -15.814,15.814c0,0.001 0,0.001 0,0.002c0,8.734 7.081,15.814 15.814,15.814l114.989,-0c8.734,-0 15.814,-7.08 15.814,-15.814c-0,-0.001 -0,-0.001 -0,-0.002Z"/><path d="M1589.79,292.208c-0,-2.655 -2.153,-4.808 -4.808,-4.808c-22.215,-0 -114.785,-0 -137.001,-0c-2.655,-0 -4.808,2.153 -4.808,4.808c0,0.001 0,0.002 0,0.002c0,2.656 2.153,4.808 4.808,4.808c22.216,0 114.786,0 137.001,0c2.655,0 4.808,-2.152 4.808,-4.808c-0,-0 -0,-0.001 -0,-0.002Z" style="fill:#bababa;"/><path d="M2302.64,318.399c-0,-0.953 -0.379,-1.867 -1.053,-2.541c-0.674,-0.674 -1.588,-1.053 -2.541,-1.053c-28.936,0 -223.567,0 -252.503,0c-0.953,0 -1.867,0.379 -2.541,1.053c-0.674,0.674 -1.053,1.588 -1.053,2.541c0,0.001 0,0.001 0,0.001c0,0.953 0.379,1.867 1.053,2.541c0.674,0.674 1.588,1.053 2.541,1.053c28.936,0 223.567,0 252.503,0c0.953,0 1.867,-0.379 2.541,-1.053c0.674,-0.674 1.053,-1.588 1.053,-2.541c-0,-0 -0,-0 -0,-0.001Z" style="fill:#bababa;"/><path d="M2302.64,439.01c-0,-0.954 -0.379,-1.868 -1.053,-2.542c-0.674,-0.674 -1.588,-1.052 -2.541,-1.052c-28.936,-0 -223.567,-0 -252.503,-0c-0.953,-0 -1.867,0.378 -2.541,1.052c-0.674,0.674 -1.053,1.588 -1.053,2.542c0,-0 0,0 0,0c0,0.954 0.379,1.868 1.053,2.542c0.674,0.674 1.588,1.052 2.541,1.052c28.936,0 223.567,0 252.503,0c0.953,0 1.867,-0.378 2.541,-1.052c0.674,-0.674 1.053,-1.588 1.053,-2.542c-0,0 -0,-0 -0,-0Z" style="fill:#bababa;"/><path d="M2302.64,679.983c-0,-0.953 -0.379,-1.868 -1.053,-2.542c-0.674,-0.674 -1.588,-1.052 -2.541,-1.052c-28.936,-0 -223.567,-0 -252.503,-0c-0.953,-0 -1.867,0.378 -2.541,1.052c-0.674,0.674 -1.053,1.589 -1.053,2.542c0,-0 0,0 0,0c0,0.954 0.379,1.868 1.053,2.542c0.674,0.674 1.588,1.052 2.541,1.052c28.936,0 223.567,0 252.503,0c0.953,0 1.867,-0.378 2.541,-1.052c0.674,-0.674 1.053,-1.588 1.053,-2.542c-0,0 -0,-0 -0,-0Z" style="fill:#bababa;"/><path d="M2302.64,562.586c-0,-0.954 -0.379,-1.868 -1.053,-2.542c-0.674,-0.674 -1.588,-1.052 -2.541,-1.052c-28.936,-0 -223.567,-0 -252.503,-0c-0.953,-0 -1.867,0.378 -2.541,1.052c-0.674,0.674 -1.053,1.588 -1.053,2.542c0,-0 0,0 0,0c0,0.954 0.379,1.868 1.053,2.542c0.674,0.674 1.588,1.052 2.541,1.052c28.936,0 223.567,0 252.503,0c0.953,0 1.867,-0.378 2.541,-1.052c0.674,-0.674 1.053,-1.588 1.053,-2.542c-0,0 -0,-0 -0,-0Z" style="fill:#bababa;"/><path d="M2302.64,803.559c-0,-0.953 -0.379,-1.868 -1.053,-2.542c-0.674,-0.674 -1.588,-1.052 -2.541,-1.052c-28.936,-0 -223.567,-0 -252.503,-0c-0.953,-0 -1.867,0.378 -2.541,1.052c-0.674,0.674 -1.053,1.589 -1.053,2.542c0,0 0,0 0,0.001c0,0.953 0.379,1.867 1.053,2.541c0.674,0.674 1.588,1.053 2.541,1.053c28.936,-0 223.567,-0 252.503,-0c0.953,-0 1.867,-0.379 2.541,-1.053c0.674,-0.674 1.053,-1.588 1.053,-2.541c-0,-0.001 -0,-0.001 -0,-0.001Z" style="fill:#bababa;"/><path d="M2196.9,333.382c0,-0.953 -0.378,-1.867 -1.052,-2.541c-0.674,-0.674 -1.589,-1.053 -2.542,-1.053c-20.837,-0 -125.929,-0 -146.766,-0c-0.953,-0 -1.867,0.379 -2.541,1.053c-0.674,0.674 -1.053,1.588 -1.053,2.541c0,0 0,0 0,0.001c0,0.953 0.379,1.867 1.053,2.541c0.674,0.674 1.588,1.053 2.541,1.053c20.837,-0 125.929,-0 146.766,-0c0.953,-0 1.868,-0.379 2.542,-1.053c0.674,-0.674 1.052,-1.588 1.052,-2.541c0,-0.001 0,-0.001 0,-0.001Z" style="fill:#bababa;"/><path d="M2196.9,453.992c0,-0.953 -0.378,-1.867 -1.052,-2.541c-0.674,-0.674 -1.589,-1.053 -2.542,-1.053c-20.837,0 -125.929,0 -146.766,0c-0.953,0 -1.867,0.379 -2.541,1.053c-0.674,0.674 -1.053,1.588 -1.053,2.541c0,0 0,0.001 0,0.001c0,0.953 0.379,1.867 1.053,2.541c0.674,0.674 1.588,1.053 2.541,1.053c20.837,-0 125.929,-0 146.766,-0c0.953,-0 1.868,-0.379 2.542,-1.053c0.674,-0.674 1.052,-1.588 1.052,-2.541c0,-0 0,-0.001 0,-0.001Z" style="fill:#bababa;"/><path d="M2196.9,694.965c0,-0.953 -0.378,-1.867 -1.052,-2.541c-0.674,-0.674 -1.589,-1.053 -2.542,-1.053c-20.837,0 -125.929,0 -146.766,0c-0.953,0 -1.867,0.379 -2.541,1.053c-0.674,0.674 -1.053,1.588 -1.053,2.541c0,0.001 0,0.001 0,0.001c0,0.953 0.379,1.867 1.053,2.541c0.674,0.674 1.588,1.053 2.541,1.053c20.837,0 125.929,0 146.766,0c0.953,0 1.868,-0.379 2.542,-1.053c0.674,-0.674 1.052,-1.588 1.052,-2.541c0,-0 0,-0 0,-0.001Z" style="fill:#bababa;"/><path d="M2196.9,577.568c0,-0.953 -0.378,-1.867 -1.052,-2.541c-0.674,-0.674 -1.589,-1.053 -2.542,-1.053c-20.837,0 -125.929,0 -146.766,0c-0.953,0 -1.867,0.379 -2.541,1.053c-0.674,0.674 -1.053,1.588 -1.053,2.541c0,0 0,0.001 0,0.001c0,0.953 0.379,1.867 1.053,2.541c0.674,0.674 1.588,1.053 2.541,1.053c20.837,-0 125.929,-0 146.766,-0c0.953,-0 1.868,-0.379 2.542,-1.053c0.674,-0.674 1.052,-1.588 1.052,-2.541c0,-0 0,-0.001 0,-0.001Z" style="fill:#bababa;"/><path d="M2196.9,818.541c0,-0.953 -0.378,-1.867 -1.052,-2.541c-0.674,-0.674 -1.589,-1.053 -2.542,-1.053c-20.837,0 -125.929,0 -146.766,0c-0.953,0 -1.867,0.379 -2.541,1.053c-0.674,0.674 -1.053,1.588 -1.053,2.541c0,0.001 0,0.001 0,0.001c0,0.953 0.379,1.867 1.053,2.541c0.674,0.674 1.588,1.053 2.541,1.053c20.837,0 125.929,0 146.766,0c0.953,0 1.868,-0.379 2.542,-1.053c0.674,-0.674 1.052,-1.588 1.052,-2.541c0,-0 0,-0 0,-0.001Z" style="fill:#bababa;"/><path d="M1589.79,503.524c-0,-2.656 -2.153,-4.808 -4.808,-4.808c-22.215,-0 -114.785,-0 -137.001,-0c-2.655,-0 -4.808,2.152 -4.808,4.808c0,0 0,0.001 0,0.002c0,2.655 2.153,4.808 4.808,4.808c22.216,-0 114.786,-0 137.001,-0c2.655,-0 4.808,-2.153 4.808,-4.808c-0,-0.001 -0,-0.002 -0,-0.002Z" style="fill:#bababa;"/><path d="M1589.79,701.246c-0,-2.656 -2.153,-4.808 -4.808,-4.808c-22.215,-0 -114.785,-0 -137.001,-0c-2.655,-0 -4.808,2.152 -4.808,4.808c0,0.001 0,0.001 0,0.002c0,2.655 2.153,4.808 4.808,4.808c22.216,0 114.786,0 137.001,0c2.655,0 4.808,-2.153 4.808,-4.808c-0,-0.001 -0,-0.001 -0,-0.002Z" style="fill:#bababa;"/><rect x="1269.6" y="56.262" width="214.126" height="25.935"/><circle cx="1440.08" cy="851.794" r="6.537"/><circle cx="2113.39" cy="851.794" r="6.537"/><circle cx="1463.23" cy="851.794" r="6.537" style="fill:#bababa;"/><circle cx="2136.54" cy="851.794" r="6.537" style="fill:#bababa;"/><circle cx="1483.8" cy="851.794" r="6.537" style="fill:#bababa;"/><circle cx="2157.11" cy="851.794" r="6.537" style="fill:#bababa;"/><path d="M2359.54,60.229c0,-26.092 -21.152,-47.244 -47.244,-47.244l-371.985,0c-26.092,0 -47.244,21.152 -47.244,47.244c-0,160.08 -0,680.888 -0,840.968c-0,26.092 21.152,47.244 47.244,47.244c89.443,0 282.542,0 371.985,0c26.092,0 47.244,-21.152 47.244,-47.244c0,-160.08 0,-680.888 0,-840.968Z" style="fill:none;stroke:#000;stroke-width:10.25px;"/><path d="M2974.52,55.873c-0,-26.092 -21.152,-47.244 -47.244,-47.244l-371.985,-0c-26.092,-0 -47.244,21.152 -47.244,47.244c-0,160.08 -0,680.888 -0,840.968c-0,26.092 21.152,47.244 47.244,47.244c89.443,-0 282.542,-0 371.985,-0c26.092,-0 47.244,-21.152 47.244,-47.244c-0,-160.08 -0,-680.888 -0,-840.968Z" style="fill:none;stroke:#000;stroke-width:10.25px;"/><path d="M134.067,210.433c0,-3.132 -1.244,-6.136 -3.459,-8.351c-2.215,-2.215 -5.219,-3.46 -8.352,-3.46c-18.039,0 -52.256,0 -70.296,0c-3.132,0 -6.136,1.245 -8.351,3.46c-2.215,2.215 -3.46,5.219 -3.46,8.351l0,70.385c0,3.132 1.245,6.136 3.46,8.351c2.215,2.215 5.219,3.46 8.351,3.46l70.296,-0c3.133,-0 6.137,-1.245 8.352,-3.46c2.215,-2.215 3.459,-5.219 3.459,-8.351c0,-18.057 0,-52.328 0,-70.385Z" style="fill:none;stroke:#a9a9a9;stroke-width:2.25px;"/><path d="M134.067,331.066c0,-3.132 -1.244,-6.136 -3.459,-8.351c-2.215,-2.215 -5.219,-3.46 -8.352,-3.46l-70.296,0c-3.132,0 -6.136,1.245 -8.351,3.46c-2.215,2.215 -3.46,5.219 -3.46,8.351l0,70.385c0,3.132 1.245,6.136 3.46,8.351c2.215,2.215 5.219,3.46 8.351,3.46l70.296,-0c3.133,-0 6.137,-1.245 8.352,-3.46c2.215,-2.215 3.459,-5.219 3.459,-8.351c0,-18.057 0,-52.328 0,-70.385Z" style="fill:none;stroke:#a9a9a9;stroke-width:2.25px;"/><path d="M134.067,449.738c0,-3.133 -1.244,-6.137 -3.459,-8.352c-2.215,-2.215 -5.219,-3.459 -8.352,-3.459l-70.296,-0c-3.132,-0 -6.136,1.244 -8.351,3.459c-2.215,2.215 -3.46,5.219 -3.46,8.352l0,70.384c0,3.132 1.245,6.137 3.46,8.352c2.215,2.215 5.219,3.459 8.351,3.459c18.04,0 52.257,0 70.296,0c3.133,0 6.137,-1.244 8.352,-3.459c2.215,-2.215 3.459,-5.22 3.459,-8.352c0,-18.057 0,-52.327 0,-70.384Z" style="fill:none;stroke:#a9a9a9;stroke-width:2.25px;"/><path d="M2867.94,61.071c-0,-1.08 -0.43,-2.116 -1.194,-2.88c-0.764,-0.764 -1.8,-1.194 -2.88,-1.194c-34.198,0 -272.992,0 -307.19,0c-1.081,0 -2.117,0.43 -2.881,1.194c-0.764,0.764 -1.193,1.8 -1.193,2.88c-0,0.001 -0,0.002 -0,0.003c-0,1.08 0.429,2.117 1.193,2.881c0.764,0.764 1.8,1.193 2.881,1.193c34.198,-0 272.992,-0 307.19,-0c1.08,-0 2.116,-0.429 2.88,-1.193c0.764,-0.764 1.194,-1.801 1.194,-2.881c-0,-0.001 -0,-0.002 -0,-0.003Z"/><path d="M2935.01,81.503c-0,-2.25 -1.824,-4.074 -4.074,-4.074l-375.945,-0c-2.25,-0 -4.074,1.824 -4.074,4.074c0,0 0,0.001 0,0.002c0,2.25 1.824,4.074 4.074,4.074l375.945,0c2.25,0 4.074,-1.824 4.074,-4.074l-0,-0.002Z"/><path d="M2764.51,175.9c-0,-1.257 -1.019,-2.276 -2.276,-2.276c-21.253,0 -184.646,0 -205.899,0c-1.257,0 -2.276,1.019 -2.276,2.276c0,0 0,0 0,0.001c0,1.257 1.019,2.276 2.276,2.276c21.253,-0 184.646,-0 205.899,-0c1.257,-0 2.276,-1.019 2.276,-2.276c-0,-0.001 -0,-0.001 -0,-0.001Z" style="fill:#bababa;"/><path d="M2922.78,338.196c-0,-1.257 -1.019,-2.276 -2.276,-2.276c-29.213,-0 -330.309,-0 -359.523,-0c-1.257,-0 -2.276,1.019 -2.276,2.276c0,0 0,0 0,0c0,1.257 1.019,2.276 2.276,2.276c29.214,0 330.31,0 359.523,0c1.257,0 2.276,-1.019 2.276,-2.276c-0,0 -0,0 -0,-0Z" style="fill:#bababa;"/><path d="M2922.78,477.647c-0,-1.257 -1.019,-2.276 -2.276,-2.276c-29.213,0 -330.309,0 -359.523,0c-1.257,0 -2.276,1.019 -2.276,2.276c0,0 0,0.001 0,0.001c0,1.257 1.019,2.276 2.276,2.276c29.214,-0 330.31,-0 359.523,-0c1.257,-0 2.276,-1.019 2.276,-2.276c-0,-0 -0,-0.001 -0,-0.001Z" style="fill:#bababa;"/><path d="M2922.78,619.244c-0,-1.257 -1.019,-2.276 -2.276,-2.276c-29.213,0 -330.309,0 -359.523,0c-1.257,-0 -2.276,1.019 -2.276,2.276c0,0 0,0 0,0c0,1.257 1.019,2.276 2.276,2.276c29.214,0 330.31,0 359.523,0c1.257,0 2.276,-1.019 2.276,-2.276c-0,0 -0,0 -0,-0Z" style="fill:#bababa;"/><path d="M2922.78,765.132c-0,-1.257 -1.019,-2.276 -2.276,-2.276c-29.213,-0 -330.309,-0 -359.523,-0c-1.257,-0 -2.276,1.019 -2.276,2.276c0,-0 0,-0 0,-0c0,1.257 1.019,2.276 2.276,2.276c29.214,-0 330.31,-0 359.523,-0c1.257,-0 2.276,-1.019 2.276,-2.276c-0,-0 -0,-0 -0,-0Z" style="fill:#bababa;"/><path d="M2922.78,358.759c-0,-1.257 -1.019,-2.276 -2.276,-2.276c-29.213,-0 -330.309,-0 -359.523,-0c-1.257,-0 -2.276,1.019 -2.276,2.276c0,0 0,0 0,0c0,1.257 1.019,2.276 2.276,2.276c29.214,0 330.31,0 359.523,0c1.257,0 2.276,-1.019 2.276,-2.276c-0,0 -0,0 -0,-0Z" style="fill:#bababa;"/><path d="M2922.78,498.21c-0,-1.257 -1.019,-2.276 -2.276,-2.276c-29.213,0 -330.309,0 -359.523,0c-1.257,0 -2.276,1.019 -2.276,2.276c0,0 0,0.001 0,0.001c0,1.257 1.019,2.276 2.276,2.276c29.214,-0 330.31,-0 359.523,-0c1.257,-0 2.276,-1.019 2.276,-2.276c-0,-0 -0,-0.001 -0,-0.001Z" style="fill:#bababa;"/><path d="M2922.78,639.807c-0,-1.257 -1.019,-2.276 -2.276,-2.276c-29.213,-0 -330.309,-0 -359.523,-0c-1.257,-0 -2.276,1.019 -2.276,2.276c0,0 0,0 0,0c0,1.257 1.019,2.276 2.276,2.276c29.214,0 330.31,0 359.523,0c1.257,0 2.276,-1.019 2.276,-2.276c-0,0 -0,0 -0,-0Z" style="fill:#bababa;"/><path d="M2922.78,785.694c-0,-1.257 -1.019,-2.276 -2.276,-2.276c-29.213,0 -330.309,0 -359.523,0c-1.257,0 -2.276,1.019 -2.276,2.276c0,0.001 0,0.001 0,0.001c0,1.257 1.019,2.276 2.276,2.276c29.214,-0 330.31,-0 359.523,-0c1.257,-0 2.276,-1.019 2.276,-2.276c-0,-0 -0,-0 -0,-0.001Z" style="fill:#bababa;"/><path d="M2922.78,377.74c-0,-1.257 -1.019,-2.276 -2.276,-2.276c-29.213,0 -330.309,0 -359.523,0c-1.257,0 -2.276,1.019 -2.276,2.276c0,0 0,0 0,0.001c0,1.257 1.019,2.276 2.276,2.276c29.214,-0 330.31,-0 359.523,-0c1.257,-0 2.276,-1.019 2.276,-2.276c-0,-0.001 -0,-0.001 -0,-0.001Z" style="fill:#bababa;"/><path d="M2922.78,517.191c-0,-1.257 -1.019,-2.276 -2.276,-2.276c-29.213,0 -330.309,0 -359.523,0c-1.257,0 -2.276,1.019 -2.276,2.276c0,0.001 0,0.001 0,0.001c0,1.257 1.019,2.276 2.276,2.276c29.214,-0 330.31,-0 359.523,-0c1.257,-0 2.276,-1.019 2.276,-2.276c-0,-0 -0,-0 -0,-0.001Z" style="fill:#bababa;"/><path d="M2922.78,658.788c-0,-1.257 -1.019,-2.276 -2.276,-2.276c-29.213,0 -330.309,0 -359.523,0c-1.257,0 -2.276,1.019 -2.276,2.276c0,0 0,0 0,0.001c0,1.257 1.019,2.276 2.276,2.276c29.214,-0 330.31,-0 359.523,-0c1.257,-0 2.276,-1.019 2.276,-2.276c-0,-0.001 -0,-0.001 -0,-0.001Z" style="fill:#bababa;"/><path d="M2922.78,804.676c-0,-1.257 -1.019,-2.276 -2.276,-2.276c-29.213,-0 -330.309,-0 -359.523,-0c-1.257,-0 -2.276,1.019 -2.276,2.276c0,-0 0,-0 0,0c0,1.257 1.019,2.276 2.276,2.276c29.214,0 330.31,0 359.523,0c1.257,0 2.276,-1.019 2.276,-2.276c-0,-0 -0,-0 -0,-0Z" style="fill:#bababa;"/><path d="M2922.78,399.885c-0,-1.257 -1.019,-2.276 -2.276,-2.276c-29.213,-0 -330.309,-0 -359.523,-0c-1.257,-0 -2.276,1.019 -2.276,2.276c0,0 0,0 0,0c0,1.257 1.019,2.276 2.276,2.276c29.214,0 330.31,0 359.523,0c1.257,0 2.276,-1.019 2.276,-2.276c-0,0 -0,0 -0,-0Z" style="fill:#bababa;"/><path d="M2922.78,539.336c-0,-1.257 -1.019,-2.276 -2.276,-2.276c-29.213,0 -330.309,0 -359.523,0c-1.257,0 -2.276,1.019 -2.276,2.276c0,0 0,0.001 0,0.001c0,1.257 1.019,2.276 2.276,2.276c29.214,-0 330.31,-0 359.523,-0c1.257,-0 2.276,-1.019 2.276,-2.276c-0,-0 -0,-0.001 -0,-0.001Z" style="fill:#bababa;"/><path d="M2922.78,680.933c-0,-1.257 -1.019,-2.276 -2.276,-2.276c-29.213,-0 -330.309,-0 -359.523,-0c-1.257,-0 -2.276,1.019 -2.276,2.276c0,0 0,0 0,0c0,1.257 1.019,2.276 2.276,2.276c29.214,0 330.31,0 359.523,0c1.257,0 2.276,-1.019 2.276,-2.276c-0,0 -0,0 -0,-0Z" style="fill:#bababa;"/><path d="M2922.78,826.82c-0,-1.257 -1.019,-2.276 -2.276,-2.276c-29.213,0 -330.309,0 -359.523,0c-1.257,0 -2.276,1.019 -2.276,2.276c0,0.001 0,0.001 0,0.001c0,1.257 1.019,2.276 2.276,2.276c29.214,-0 330.31,-0 359.523,-0c1.257,-0 2.276,-1.019 2.276,-2.276c-0,-0 -0,-0 -0,-0.001Z" style="fill:#bababa;"/><path d="M2798.85,419.657c0,-1.257 -1.019,-2.276 -2.276,-2.276c-22.974,-0 -212.613,-0 -235.588,-0c-1.257,-0 -2.276,1.019 -2.276,2.276c0,0 0,0 0,0c0,1.257 1.019,2.276 2.276,2.276c22.975,0 212.614,0 235.588,0c1.257,0 2.276,-1.019 2.276,-2.276c0,0 0,0 0,-0Z" style="fill:#bababa;"/><path d="M2798.85,559.108c0,-1.257 -1.019,-2.276 -2.276,-2.276c-22.974,0 -212.613,0 -235.588,0c-1.257,0 -2.276,1.019 -2.276,2.276c0,0 0,0.001 0,0.001c0,1.257 1.019,2.276 2.276,2.276c22.975,-0 212.614,-0 235.588,-0c1.257,-0 2.276,-1.019 2.276,-2.276c0,-0 0,-0.001 0,-0.001Z" style="fill:#bababa;"/><path d="M2798.85,700.705c0,-1.257 -1.019,-2.276 -2.276,-2.276c-22.974,0 -212.613,0 -235.588,0c-1.257,0 -2.276,1.019 -2.276,2.276c0,0 0,0 0,0c0,1.257 1.019,2.276 2.276,2.276c22.975,0 212.614,0 235.588,0c1.257,0 2.276,-1.019 2.276,-2.276c0,0 0,0 0,-0Z" style="fill:#bababa;"/><path d="M2798.85,846.593c0,-1.257 -1.019,-2.276 -2.276,-2.276c-22.974,-0 -212.613,-0 -235.588,-0c-1.257,-0 -2.276,1.019 -2.276,2.276c0,-0 0,-0 0,-0c0,1.257 1.019,2.276 2.276,2.276c22.975,-0 212.614,-0 235.588,-0c1.257,-0 2.276,-1.019 2.276,-2.276c0,-0 0,-0 0,-0Z" style="fill:#bababa;"/><path d="M2617.62,153.768c-0,-1.548 -1.255,-2.802 -2.802,-2.802c-10.781,-0 -49.518,-0 -60.298,-0c-1.548,-0 -2.802,1.254 -2.802,2.802c-0,0.001 -0,0.002 -0,0.003c-0,1.547 1.254,2.802 2.802,2.802c10.78,-0 49.517,-0 60.298,-0c1.547,-0 2.802,-1.255 2.802,-2.802c-0,-0.001 -0,-0.002 -0,-0.003Z" style="fill:#bababa;"/><path d="M2924.62,316.063c-0,-0.743 -0.295,-1.455 -0.821,-1.981c-0.525,-0.525 -1.238,-0.821 -1.981,-0.821c-32.138,0 -330.508,0 -362.646,0c-0.743,0 -1.456,0.296 -1.982,0.821c-0.525,0.526 -0.82,1.238 -0.82,1.981c-0,0.001 -0,0.002 -0,0.003c-0,0.743 0.295,1.456 0.82,1.982c0.526,0.525 1.239,0.82 1.982,0.82c32.138,0 330.508,0 362.646,0c0.743,0 1.456,-0.295 1.981,-0.82c0.526,-0.526 0.821,-1.239 0.821,-1.982c-0,-0.001 -0,-0.002 -0,-0.003Z" style="fill:#bababa;"/><path d="M2924.62,455.515c-0,-0.743 -0.295,-1.456 -0.821,-1.982c-0.525,-0.525 -1.238,-0.82 -1.981,-0.82c-32.138,-0 -330.508,-0 -362.646,-0c-0.743,-0 -1.456,0.295 -1.982,0.82c-0.525,0.526 -0.82,1.239 -0.82,1.982c-0,0.001 -0,0.002 -0,0.003c-0,0.743 0.295,1.456 0.82,1.981c0.526,0.525 1.239,0.821 1.982,0.821c32.138,-0 330.508,-0 362.646,-0c0.743,-0 1.456,-0.296 1.981,-0.821c0.526,-0.525 0.821,-1.238 0.821,-1.981c-0,-0.001 -0,-0.002 -0,-0.003Z" style="fill:#bababa;"/><path d="M2924.62,597.111c-0,-0.743 -0.295,-1.455 -0.821,-1.981c-0.525,-0.525 -1.238,-0.821 -1.981,-0.821c-32.138,0 -330.508,0 -362.646,0c-0.743,0 -1.456,0.296 -1.982,0.821c-0.525,0.526 -0.82,1.238 -0.82,1.981c-0,0.001 -0,0.002 -0,0.003c-0,0.743 0.295,1.456 0.82,1.982c0.526,0.525 1.239,0.82 1.982,0.82c32.138,0 330.508,0 362.646,0c0.743,0 1.456,-0.295 1.981,-0.82c0.526,-0.526 0.821,-1.239 0.821,-1.982c-0,-0.001 -0,-0.002 -0,-0.003Z" style="fill:#bababa;"/><path d="M2924.62,742.999c-0,-0.743 -0.295,-1.456 -0.821,-1.981c-0.525,-0.526 -1.238,-0.821 -1.981,-0.821c-32.138,-0 -330.508,-0 -362.646,-0c-0.743,-0 -1.456,0.295 -1.982,0.821c-0.525,0.525 -0.82,1.238 -0.82,1.981c-0,0.001 -0,0.002 -0,0.003c-0,0.743 0.295,1.456 0.82,1.981c0.526,0.526 1.239,0.821 1.982,0.821c32.138,-0 330.508,-0 362.646,-0c0.743,-0 1.456,-0.295 1.981,-0.821c0.526,-0.525 0.821,-1.238 0.821,-1.981c-0,-0.001 -0,-0.002 -0,-0.003Z" style="fill:#bababa;"/><path d="M2754.18,131.624c0,-0.884 -0.351,-1.731 -0.975,-2.355c-0.625,-0.625 -1.472,-0.975 -2.355,-0.975c-24.112,-0 -171.69,-0 -195.801,-0c-0.883,-0 -1.73,0.35 -2.355,0.975c-0.624,0.624 -0.975,1.471 -0.975,2.355c-0,0 -0,0.001 -0,0.001c-0,0.883 0.351,1.73 0.975,2.355c0.625,0.624 1.472,0.975 2.355,0.975c24.111,0 171.689,0 195.801,0c0.883,0 1.73,-0.351 2.355,-0.975c0.624,-0.625 0.975,-1.472 0.975,-2.355c0,-0 0,-0.001 0,-0.001Z" style="fill:#bababa;"/><path d="M2927.06,231.927c-0,-5.22 -4.238,-9.458 -9.458,-9.458l-355.612,0c-5.219,0 -9.457,4.238 -9.457,9.458l-0,18.915c-0,5.22 4.238,9.458 9.457,9.458l355.612,-0c5.22,-0 9.458,-4.238 9.458,-9.458l-0,-18.915Z" style="fill:#bababa;"/><path d="M475.16,860.039l-466.965,-0l0,33.485c0,26.092 21.152,47.244 47.245,47.244l372.476,0c26.092,0 47.244,-21.152 47.244,-47.244c-0,-17.646 -0,-33.485 -0,-33.485Z" style="fill:none;stroke:#bababa;stroke-width:3.68px;"/><path d="M471.6,52.371c0,-26.092 -21.151,-47.244 -47.244,-47.244c-89.442,0 -282.542,0 -371.985,0c-26.092,0 -47.244,21.152 -47.244,47.244c0,160.08 0,680.888 0,840.968c0,26.092 21.152,47.244 47.244,47.244c89.443,0 282.543,0 371.985,0c26.093,0 47.244,-21.152 47.244,-47.244c0,-160.08 0,-680.888 0,-840.968Z" style="fill:none;stroke:#000;stroke-width:10.25px;"/><path d="M416.154,216.424c0,-1.081 -0.429,-2.117 -1.193,-2.881c-0.764,-0.764 -1.8,-1.193 -2.881,-1.193c-30.855,-0 -227.387,-0 -258.243,-0c-1.08,-0 -2.117,0.429 -2.881,1.193c-0.764,0.764 -1.193,1.8 -1.193,2.881c0,0.001 0,0.001 0,0.002c0,1.081 0.429,2.117 1.193,2.881c0.764,0.764 1.801,1.193 2.881,1.193c30.856,0 227.388,0 258.243,0c1.081,0 2.117,-0.429 2.881,-1.193c0.764,-0.764 1.193,-1.8 1.193,-2.881c0,-0.001 0,-0.001 0,-0.002Z"/><path d="M416.154,337.057c0,-1.081 -0.429,-2.117 -1.193,-2.881c-0.764,-0.764 -1.8,-1.193 -2.881,-1.193c-30.855,-0 -227.387,-0 -258.243,-0c-1.08,-0 -2.117,0.429 -2.881,1.193c-0.764,0.764 -1.193,1.8 -1.193,2.881c0,0.001 0,0.001 0,0.002c0,1.081 0.429,2.117 1.193,2.881c0.764,0.764 1.801,1.193 2.881,1.193c30.856,0 227.388,0 258.243,0c1.081,0 2.117,-0.429 2.881,-1.193c0.764,-0.764 1.193,-1.8 1.193,-2.881c0,-0.001 0,-0.001 0,-0.002Z"/><path d="M416.154,455.728c0,-1.08 -0.429,-2.117 -1.193,-2.881c-0.764,-0.764 -1.8,-1.193 -2.881,-1.193c-30.855,0 -227.387,0 -258.243,0c-1.08,0 -2.117,0.429 -2.881,1.193c-0.764,0.764 -1.193,1.801 -1.193,2.881c0,0.001 0,0.002 0,0.003c0,1.08 0.429,2.116 1.193,2.88c0.764,0.764 1.801,1.194 2.881,1.194c30.856,-0 227.388,-0 258.243,-0c1.081,-0 2.117,-0.43 2.881,-1.194c0.764,-0.764 1.193,-1.8 1.193,-2.88c0,-0.001 0,-0.002 0,-0.003Z"/><path d="M461.524,451.374c1.081,0 2.117,-0.429 2.881,-1.193c0.764,-0.764 1.193,-1.8 1.193,-2.881c0,-35.626 0,-293.722 0,-329.348c0,-1.08 -0.429,-2.117 -1.193,-2.881c-0.764,-0.764 -1.8,-1.193 -2.881,-1.193c-0.001,0 -0.001,0 -0.002,0c-1.081,0 -2.117,0.429 -2.881,1.193c-0.764,0.764 -1.193,1.801 -1.193,2.881c-0,35.626 -0,293.722 -0,329.348c-0,1.081 0.429,2.117 1.193,2.881c0.764,0.764 1.8,1.193 2.881,1.193c0.001,0 0.001,0 0.002,0Z" style="fill:#bababa;"/><path d="M265.49,246.816c-0,-2.25 -1.824,-4.074 -4.074,-4.074l-107.579,0c-2.25,0 -4.074,1.824 -4.074,4.074l0,0.003c0,2.25 1.824,4.074 4.074,4.074c17.922,-0 89.656,-0 107.579,-0c2.25,-0 4.074,-1.824 4.074,-4.074c-0,-0.001 -0,-0.002 -0,-0.003Z"/><path d="M265.49,367.449c-0,-2.25 -1.824,-4.074 -4.074,-4.074c-17.923,-0 -89.657,-0 -107.579,-0c-2.25,-0 -4.074,1.824 -4.074,4.074l0,0.002c0,2.25 1.824,4.074 4.074,4.074c17.922,0 89.656,0 107.579,0c2.25,0 4.074,-1.824 4.074,-4.074c-0,-0 -0,-0.001 -0,-0.002Z"/><path d="M265.49,486.12c-0,-2.25 -1.824,-4.074 -4.074,-4.074l-107.579,0c-2.25,0 -4.074,1.824 -4.074,4.074l0,0.003c0,2.25 1.824,4.074 4.074,4.074c17.922,-0 89.656,-0 107.579,-0c2.25,-0 4.074,-1.824 4.074,-4.074c-0,-0.001 -0,-0.002 -0,-0.003Z"/><path d="M70.34,54.069c0,-1.325 -1.074,-2.398 -2.398,-2.399c-7.915,0 -33.156,0 -41.072,0c-1.324,0.001 -2.398,1.074 -2.398,2.399c0,0.001 0,0.002 0,0.003c0,1.325 1.074,2.398 2.398,2.398c7.916,0 33.157,0 41.072,0c1.324,0 2.398,-1.073 2.398,-2.398c0,-0.001 0,-0.002 0,-0.003Z"/><path d="M70.34,62.879c0,-1.324 -1.074,-2.398 -2.398,-2.398c-7.915,0 -33.156,0 -41.072,0c-1.324,0 -2.398,1.074 -2.398,2.398c0,0.001 0,0.003 0,0.004c0,1.324 1.074,2.398 2.398,2.398c7.916,-0 33.157,-0 41.072,-0c1.324,-0 2.398,-1.074 2.398,-2.398c0,-0.001 0,-0.003 0,-0.004Z"/><path d="M70.34,71.814c0,-1.325 -1.074,-2.398 -2.398,-2.398c-7.915,-0 -33.156,-0 -41.072,-0c-1.324,-0 -2.398,1.073 -2.398,2.398c0,0.001 0,0.002 0,0.004c0,1.324 1.074,2.398 2.398,2.398c7.916,-0 33.157,-0 41.072,-0c1.324,-0 2.398,-1.074 2.398,-2.398c0,-0.002 0,-0.003 0,-0.004Z"/><rect x="49.537" y="883.245" width="68.892" height="25.935" style="fill:none;stroke:#000;stroke-width:0.82px;"/><rect x="210.168" y="883.245" width="68.892" height="25.935"/><rect x="378.597" y="883.245" width="68.892" height="25.935" style="fill:none;stroke:#000;stroke-width:0.82px;"/><rect x="141.708" y="52.152" width="214.126" height="25.935"/></svg>