<?xml version="1.0" encoding="UTF-8" standalone="no"?><!DOCTYPE svg PUBLIC "-//W3C//DTD SVG 1.1//EN" "http://www.w3.org/Graphics/SVG/1.1/DTD/svg11.dtd"><svg width="100%" height="100%" viewBox="0 0 2125 751" version="1.1" xmlns="http://www.w3.org/2000/svg" xmlns:xlink="http://www.w3.org/1999/xlink" xml:space="preserve" xmlns:serif="http://www.serif.com/" style="fill-rule:evenodd;clip-rule:evenodd;stroke-linecap:round;stroke-linejoin:round;stroke-miterlimit:1.5;"><rect x="0.312" y="92.874" width="245.09" height="235.055" style="fill:#ebebeb;"/><rect x="1845.77" y="277.415" width="278.259" height="235.055" style="fill:#ebebeb;"/><rect x="338.078" y="267.766" width="278.259" height="235.055" style="fill:#ebebeb;"/><rect x="1331.95" y="0" width="278.259" height="235.055" style="fill:#ebebeb;"/><rect x="1336.3" y="475.224" width="278.259" height="235.055" style="fill:#ebebeb;"/><rect x="763.375" y="275.003" width="353.041" height="235.055" style="fill:#ebebeb;"/><rect x="0" y="515.027" width="245.09" height="235.055" style="fill:#ebebeb;"/><rect x="0" y="290.683" width="245.09" height="235.055" style="fill:#ebebeb;"/><text x="24.792px" y="218.65px" style="font-family:'Gilroy-Light', 'Gilroy';font-weight:300;font-size:50px;">L<tspan x="48.192px " y="218.65px ">a</tspan>wy<tspan x="143.442px 172.892px 187.792px " y="218.65px 218.65px 218.65px ">ers</tspan></text><g transform="matrix(1,0,0,1,17.7255,356.801)"><text x="57.745px" y="36.5px" style="font-family:'Gilroy-Light', 'Gilroy';font-weight:300;font-size:50px;">L<tspan x="81.145px " y="36.5px ">a</tspan>w</text><text x="5.32px" y="86.5px" style="font-family:'Gilroy-Light', 'Gilroy';font-weight:300;font-size:50px;">s<tspan x="27.22px " y="86.5px ">t</tspan>udent<tspan x="181.42px " y="86.5px ">s</tspan></text></g><g transform="matrix(1,0,0,1,1842.41,343.533)"><text x="62.84px" y="36.5px" style="font-family:'Gilroy-Light', 'Gilroy';font-weight:300;font-size:50px;">A<tspan x="93.79px 121.59px 149.39px 177.84px 199.24px " y="36.5px 36.5px 36.5px 36.5px 36.5px ">ccess</tspan></text><text x="11.065px" y="86.5px" style="font-family:'Gilroy-Light', 'Gilroy';font-weight:300;font-size:50px;">Inf<tspan x="64.615px " y="86.5px ">o</tspan>rmation</text></g><text x="363.883px" y="395.713px" style="font-family:'Gilroy-Light', 'Gilroy';font-weight:300;font-size:50px;">Sub<tspan x="452.533px 474.683px " y="395.713px 395.713px ">sc</tspan>ribe</text><g transform="matrix(1,0,0,1,766.046,310.967)"><text x="31.525px" y="36.5px" style="font-family:'Gilroy-Light', 'Gilroy';font-weight:300;font-size:50px;">S<tspan x="60.925px " y="36.5px ">e</tspan>ar<tspan x="137.025px " y="36.5px ">c</tspan>h/Find</text><text x="57.825px" y="86.5px" style="font-family:'Gilroy-Light', 'Gilroy';font-weight:300;font-size:50px;">what the<tspan x="264.375px " y="86.5px ">y</tspan></text><text x="115.475px" y="136.5px" style="font-family:'Gilroy-Light', 'Gilroy';font-weight:300;font-size:50px;">w<tspan x="152.975px " y="136.5px ">a</tspan>nt</text></g><text x="1337.93px" y="132.772px" style="font-family:'Gilroy-Light', 'Gilroy';font-weight:300;font-size:50px;">Shar<tspan x="1441.48px " y="132.772px ">e</tspan>/S<tspan x="1526.68px 1558.93px 1583.48px " y="132.772px 132.772px 132.772px ">ave</tspan></text><g transform="matrix(1,0,0,1,1301.58,536.517)"><text x="95.45px" y="36.5px" style="font-family:'Gilroy-Light', 'Gilroy';font-weight:300;font-size:50px;">U<tspan x="128.55px 150.7px " y="36.5px 36.5px ">se</tspan> on</text><text x="81.2px" y="86.5px" style="font-family:'Gilroy-Light', 'Gilroy';font-weight:300;font-size:50px;">pr<tspan x="127.85px 157.65px " y="86.5px 86.5px ">oj</tspan>ect<tspan x="243.6px " y="86.5px ">s</tspan></text></g><g transform="matrix(1,0,0,1,12.9009,557.022)"><text x="62.569px" y="36.5px" style="font-family:'Gilroy-Light', 'Gilroy';font-weight:300;font-size:50px;">L<tspan x="85.969px " y="36.5px ">a</tspan>w</text><text x="3.069px" y="86.5px" style="font-family:'Gilroy-Light', 'Gilroy';font-weight:300;font-size:50px;">t<tspan x="20.369px " y="86.5px ">e</tspan>acher<tspan x="182.669px 205.069px " y="86.5px 86.5px ">s,</tspan></text><text x="68.044px" y="136.5px" style="font-family:'Gilroy-Light', 'Gilroy';font-weight:300;font-size:50px;">e<tspan x="96.744px 114.044px 140.594px " y="136.5px 136.5px 136.5px ">tc.</tspan></text></g><path d="M246.027,374.922l94.08,-0" style="fill:none;stroke:#000;stroke-width:4.17px;"/><path d="M617.521,374.922l159.212,-0" style="fill:none;stroke:#000;stroke-width:4.17px;"/><path d="M1017.52,265.881l313.17,-108.442" style="fill:none;stroke:#000;stroke-width:4.17px;"/><path d="M1615.77,157.439l313.17,108.442" style="fill:none;stroke:#000;stroke-width:4.17px;"/><path d="M1017.52,526.521l313.17,108.442" style="fill:none;stroke:#000;stroke-width:4.17px;"/><path d="M1618.18,632.551l313.17,-108.442" style="fill:none;stroke:#000;stroke-width:4.17px;"/></svg>