<?xml version="1.0" encoding="UTF-8" standalone="no"?><!DOCTYPE svg PUBLIC "-//W3C//DTD SVG 1.1//EN" "http://www.w3.org/Graphics/SVG/1.1/DTD/svg11.dtd"><svg width="100%" height="100%" viewBox="0 0 2233 721" version="1.1" xmlns="http://www.w3.org/2000/svg" xmlns:xlink="http://www.w3.org/1999/xlink" xml:space="preserve" xmlns:serif="http://www.serif.com/" style="fill-rule:evenodd;clip-rule:evenodd;stroke-linecap:round;stroke-linejoin:round;stroke-miterlimit:1.5;"><path d="M147.178,30.393l1848.78,0" style="fill:none;stroke:#000;stroke-width:10.05px;"/><circle cx="141.666" cy="27.785" r="27.785" style="fill:#fffd00;"/><circle cx="754.819" cy="27.785" r="27.785" style="fill:#fffd00;"/><circle cx="1383.41" cy="27.785" r="27.785" style="fill:#fffd00;"/><circle cx="1980.89" cy="27.785" r="27.785" style="fill:#fffd00;"/><text x="0.776px" y="118.589px" style="font-family:'Poppins-Medium', 'Poppins';font-weight:500;font-size:50px;">U<tspan x="35.776px 68.726px 103.126px 134.476px 154.176px 181.376px 200.476px 234.876px 267.826px " y="118.589px 118.589px 118.589px 118.589px 118.589px 118.589px 118.589px 118.589px 118.589px ">nderstand</tspan></text><g transform="matrix(1,0,0.0197444,1,3.58773,0)"><text x="675.891px" y="121.565px" style="font-family:'Poppins-Medium', 'Poppins';font-weight:500;font-size:50px;">I<tspan x="689.591px 723.991px 755.341px 789.741px 808.841px " y="121.565px 121.565px 121.565px 121.565px 121.565px ">deate</tspan></text></g><g transform="matrix(1,0,0.0197444,1,3.58773,0)"><text x="1170.05px" y="121.565px" style="font-family:'Poppins-Medium', 'Poppins';font-weight:500;font-size:50px;">D<tspan x="1206px 1237.35px 1264.55px 1278.25px 1312.65px 1345.6px 1359.1px 1393.5px 1426.45px 1460.85px 1474.35px 1510.3px 1541.65px 1570.95px 1602.3px 1616px 1648.4px " y="121.565px 121.565px 121.565px 121.565px 121.565px 121.565px 121.565px 121.565px 121.565px 121.565px 121.565px 121.565px 121.565px 121.565px 121.565px 121.565px 121.565px ">esign and Develop</tspan></text></g><g transform="matrix(1,0,0.0197444,1,3.58773,0)"><text x="1909.95px" y="121.565px" style="font-family:'Poppins-Medium', 'Poppins';font-weight:500;font-size:50px;">F<tspan x="1936.2px 1967.55px 1998.9px 2033.3px 2067.7px 2102.1px 2132.6px " y="121.565px 121.565px 121.565px 121.565px 121.565px 121.565px 121.565px ">eedback</tspan></text></g><g transform="matrix(1,0,0,1,-8949.91,-579.675)"><text x="8945.74px" y="788.547px" style="font-family:'Poppins-Medium', 'Poppins';font-weight:500;font-size:41.667px;fill:#909090;">•<tspan x="8965.41px 8979.19px 9008.36px 9035.82px 9064.49px 9090.61px 9107.03px 9129.69px 9145.61px 9174.28px 9201.74px 9230.4px 9241.65px 9257.57px 9285.03px 9311.15px 9322.4px 9349.86px 9372.53px 9398.65px 9415.07px " y="788.547px 788.547px 788.547px 788.547px 788.547px 788.547px 788.547px 788.547px 788.547px 788.547px 788.547px 788.547px 788.547px 788.547px 788.547px 788.547px 788.547px 788.547px 788.547px 788.547px 788.547px "> Understand the users</tspan></text><text x="8979.19px" y="834.38px" style="font-family:'Poppins-Medium', 'Poppins';font-weight:500;font-size:41.667px;fill:#909090;">p<tspan x="9007.86px 9033.99px 9050.4px 9073.07px 9101.74px 9127.86px 9153.28px 9169.19px 9180.61px 9205.03px 9231.15px 9253.82px 9265.07px 9292.07px 9319.53px 9330.78px 9346.69px 9374.15px " y="834.38px 834.38px 834.38px 834.38px 834.38px 834.38px 834.38px 834.38px 834.38px 834.38px 834.38px 834.38px 834.38px 834.38px 834.38px 834.38px 834.38px 834.38px ">erspectives on the</tspan></text><text x="8979.19px" y="880.213px" style="font-family:'Poppins-Medium', 'Poppins';font-weight:500;font-size:41.667px;fill:#909090;">p<tspan x="9007.86px 9024.28px 9051.28px 9079.94px 9107.4px 9132.82px " y="880.213px 880.213px 880.213px 880.213px 880.213px 880.213px ">roduct</tspan></text><text x="8945.74px" y="955.213px" style="font-family:'Poppins-Medium', 'Poppins';font-weight:500;font-size:41.667px;fill:#909090;">•<tspan x="8965.41px 8979.19px 9008.36px 9035.82px 9064.49px 9090.61px 9107.03px 9129.69px 9145.61px 9174.28px 9201.74px 9230.4px 9241.65px 9257.57px 9285.03px " y="955.213px 955.213px 955.213px 955.213px 955.213px 955.213px 955.213px 955.213px 955.213px 955.213px 955.213px 955.213px 955.213px 955.213px 955.213px "> Understand the</tspan></text><text x="8979.19px" y="1001.05px" style="font-family:'Poppins-Medium', 'Poppins';font-weight:500;font-size:41.667px;fill:#909090;">v<tspan x="9003.61px 9015.03px 9037.69px 9049.11px 9076.11px 9103.57px 9125.4px 9169.11px 9180.53px 9203.19px 9225.86px 9237.28px 9264.28px 9291.74px 9302.99px 9329.99px 9344.24px 9355.49px 9379.4px 9406.86px " y="1001.05px 1001.05px 1001.05px 1001.05px 1001.05px 1001.05px 1001.05px 1001.05px 1001.05px 1001.05px 1001.05px 1001.05px 1001.05px 1001.05px 1001.05px 1001.05px 1001.05px 1001.05px 1001.05px 1001.05px ">ision/mission of The</tspan></text><text x="8979.19px" y="1046.88px" style="font-family:'Poppins-Medium', 'Poppins';font-weight:500;font-size:41.667px;fill:#909090;">E<tspan x="9001.44px 9030.11px 9041.53px 9066.94px " y="1046.88px 1046.88px 1046.88px 1046.88px ">dict</tspan></text><text x="8945.74px" y="1121.88px" style="font-family:'Poppins-Medium', 'Poppins';font-weight:500;font-size:41.667px;fill:#909090;">•<tspan x="8965.41px 8979.19px 9004.4px 9020.82px 9047.82px 9076.49px 9087.9px 9114.03px 9157.74px 9180.4px 9191.65px 9213.9px 9242.57px 9253.99px 9279.4px 9295.32px 9306.57px 9317.99px " y="1121.88px 1121.88px 1121.88px 1121.88px 1121.88px 1121.88px 1121.88px 1121.88px 1121.88px 1121.88px 1121.88px 1121.88px 1121.88px 1121.88px 1121.88px 1121.88px 1121.88px 1121.88px "> Problems Edict is</tspan></text><text x="8979.19px" y="1167.71px" style="font-family:'Poppins-Medium', 'Poppins';font-weight:500;font-size:41.667px;fill:#909090;">t<tspan x="8995.11px 9011.53px 9036.19px 9047.61px 9075.07px 9103.74px 9114.99px 9130.9px 9157.9px 9169.15px 9191.82px 9218.82px 9230.24px 9254.65px " y="1167.71px 1167.71px 1167.71px 1167.71px 1167.71px 1167.71px 1167.71px 1167.71px 1167.71px 1167.71px 1167.71px 1167.71px 1167.71px 1167.71px ">rying to solve</tspan></text><text x="8945.74px" y="1242.71px" style="font-family:'Poppins-Medium', 'Poppins';font-weight:500;font-size:41.667px;fill:#909090;">•<tspan x="8965.41px 8979.19px 9004.4px 9020.82px 9047.82px 9076.49px 9087.9px 9114.03px 9157.74px 9180.4px 9191.65px 9217.07px 9244.53px 9260.94px 9277.36px 9303.49px 9330.94px " y="1242.71px 1242.71px 1242.71px 1242.71px 1242.71px 1242.71px 1242.71px 1242.71px 1242.71px 1242.71px 1242.71px 1242.71px 1242.71px 1242.71px 1242.71px 1242.71px 1242.71px "> Problems current</tspan></text><text x="8979.19px" y="1288.55px" style="font-family:'Poppins-Medium', 'Poppins';font-weight:500;font-size:41.667px;fill:#909090;">u<tspan x="9006.65px 9029.32px 9055.44px 9071.86px 9094.53px 9105.78px 9134.44px 9150.86px 9176.99px 9188.24px 9202.49px 9231.15px 9256.57px 9267.99px 9295.44px " y="1288.55px 1288.55px 1288.55px 1288.55px 1288.55px 1288.55px 1288.55px 1288.55px 1288.55px 1288.55px 1288.55px 1288.55px 1288.55px 1288.55px 1288.55px ">sers are facing</tspan></text></g><g transform="matrix(1,0,0,1,-8336.75,-579.675)"><text x="8945.74px" y="788.547px" style="font-family:'Poppins-Medium', 'Poppins';font-weight:500;font-size:41.667px;fill:#909090;">•<tspan x="8965.41px 8979.19px 9012.4px 9039.86px 9051.28px 9076.69px 9100.19px 9111.61px 9136.28px 9147.53px 9191.24px 9219.9px 9248.57px 9259.82px 9286.82px 9314.28px " y="788.547px 788.547px 788.547px 788.547px 788.547px 788.547px 788.547px 788.547px 788.547px 788.547px 788.547px 788.547px 788.547px 788.547px 788.547px 788.547px "> Quickly map out</tspan></text><text x="8979.19px" y="834.38px" style="font-family:'Poppins-Medium', 'Poppins';font-weight:500;font-size:41.667px;fill:#909090;">i<tspan x="8990.61px 9019.28px 9045.4px 9074.07px 9096.74px 9106.53px 9117.78px 9146.44px 9173.9px " y="834.38px 834.38px 834.38px 834.38px 834.38px 834.38px 834.38px 834.38px 834.38px ">deas, and</tspan></text><text x="8979.19px" y="880.213px" style="font-family:'Poppins-Medium', 'Poppins';font-weight:500;font-size:41.667px;fill:#909090;">u<tspan x="9006.65px 9034.11px 9062.78px 9088.9px 9105.32px 9127.99px 9143.9px 9172.57px 9200.03px 9228.69px 9239.94px 9274.74px 9302.19px 9330.86px " y="880.213px 880.213px 880.213px 880.213px 880.213px 880.213px 880.213px 880.213px 880.213px 880.213px 880.213px 880.213px 880.213px 880.213px ">nderstand what</tspan></text><text x="8979.19px" y="926.047px" style="font-family:'Poppins-Medium', 'Poppins';font-weight:500;font-size:41.667px;fill:#909090;">w<tspan x="9013.99px 9040.99px 9068.44px 9079.86px 9108.53px 9119.78px 9154.57px 9181.57px 9197.99px 9221.49px 9232.74px 9261.4px 9287.53px 9310.19px " y="926.047px 926.047px 926.047px 926.047px 926.047px 926.047px 926.047px 926.047px 926.047px 926.047px 926.047px 926.047px 926.047px 926.047px ">ould work best</tspan></text><text x="8979.19px" y="971.88px" style="font-family:'Poppins-Medium', 'Poppins';font-weight:500;font-size:41.667px;fill:#909090;">a<tspan x="9007.86px 9035.32px 9063.99px 9075.24px 9110.03px 9137.49px 9166.15px 9182.07px 9193.32px 9228.11px 9255.11px 9282.57px 9293.99px " y="971.88px 971.88px 971.88px 971.88px 971.88px 971.88px 971.88px 971.88px 971.88px 971.88px 971.88px 971.88px 971.88px ">nd what would</tspan></text><text x="8979.19px" y="1017.71px" style="font-family:'Poppins-Medium', 'Poppins';font-weight:500;font-size:41.667px;fill:#909090;">n<tspan x="9006.65px 9033.65px " y="1017.71px 1017.71px ">ot</tspan></text><text x="8945.74px" y="1092.71px" style="font-family:'Poppins-Medium', 'Poppins';font-weight:500;font-size:41.667px;fill:#909090;">•<tspan x="8965.41px 8979.19px 9016.36px 9045.03px 9068.53px 9079.94px 9107.4px 9136.07px 9147.32px 9158.74px 9174.65px 9200.78px 9217.19px 9245.86px 9261.78px 9273.19px 9300.19px 9327.65px " y="1092.71px 1092.71px 1092.71px 1092.71px 1092.71px 1092.71px 1092.71px 1092.71px 1092.71px 1092.71px 1092.71px 1092.71px 1092.71px 1092.71px 1092.71px 1092.71px 1092.71px 1092.71px "> Making iterations</tspan></text><text x="8945.74px" y="1167.71px" style="font-family:'Poppins-Medium', 'Poppins';font-weight:500;font-size:41.667px;fill:#909090;">•<tspan x="8965.41px 8979.19px 9004.78px 9030.9px 9057.03px 9080.53px 9091.94px 9119.4px 9148.07px 9159.32px 9173.57px 9199.69px 9225.82px 9254.49px 9283.15px 9311.82px 9337.24px " y="1167.71px 1167.71px 1167.71px 1167.71px 1167.71px 1167.71px 1167.71px 1167.71px 1167.71px 1167.71px 1167.71px 1167.71px 1167.71px 1167.71px 1167.71px 1167.71px 1167.71px "> Seeking feedback</tspan></text></g><g transform="matrix(1,0,0,1,-7766.29,-579.675)"><text x="8945.74px" y="788.547px" style="font-family:'Poppins-Medium', 'Poppins';font-weight:500;font-size:41.667px;fill:#909090;">•<tspan x="8965.41px 8979.19px 9009.15px 9035.28px 9057.94px 9069.36px 9098.03px 9125.49px 9136.74px 9152.65px 9180.11px 9206.24px 9217.49px 9228.9px 9256.36px 9272.28px 9298.4px 9314.82px 9329.07px 9357.74px 9383.15px " y="788.547px 788.547px 788.547px 788.547px 788.547px 788.547px 788.547px 788.547px 788.547px 788.547px 788.547px 788.547px 788.547px 788.547px 788.547px 788.547px 788.547px 788.547px 788.547px 788.547px 788.547px "> Design the interface</tspan></text><text x="8979.19px" y="834.38px" style="font-family:'Poppins-Medium', 'Poppins';font-weight:500;font-size:41.667px;fill:#909090;">d<tspan x="9007.86px 9033.99px 9058.4px 9084.53px 9095.94px 9122.94px 9151.61px 9162.86px 9174.28px 9190.19px 9201.44px 9228.9px 9251.57px 9262.99px 9290.44px 9319.11px 9330.36px 9372.4px 9383.82px 9405.03px " y="834.38px 834.38px 834.38px 834.38px 834.38px 834.38px 834.38px 834.38px 834.38px 834.38px 834.38px 834.38px 834.38px 834.38px 834.38px 834.38px 834.38px 834.38px 834.38px 834.38px ">evelop it using Wix.</tspan></text></g><g transform="matrix(1,0,0,1,-7067.08,-579.675)"><text x="8945.74px" y="788.547px" style="font-family:'Poppins-Medium', 'Poppins';font-weight:500;font-size:41.667px;fill:#909090;">•<tspan x="8965.41px 8979.19px 9004.78px 9030.9px 9057.03px 9080.53px 9091.78px 9106.03px 9132.15px 9158.28px 9186.94px 9215.61px 9244.28px 9269.69px " y="788.547px 788.547px 788.547px 788.547px 788.547px 788.547px 788.547px 788.547px 788.547px 788.547px 788.547px 788.547px 788.547px 788.547px "> Seek feedback</tspan></text><text x="8979.19px" y="834.38px" style="font-family:'Poppins-Medium', 'Poppins';font-weight:500;font-size:41.667px;fill:#909090;">f<tspan x="8993.44px 9009.86px 9036.86px 9080.57px 9091.82px 9119.28px 9141.94px 9168.07px 9184.49px 9207.15px 9218.4px 9247.07px 9274.53px " y="834.38px 834.38px 834.38px 834.38px 834.38px 834.38px 834.38px 834.38px 834.38px 834.38px 834.38px 834.38px 834.38px ">rom users and</tspan></text><text x="8979.19px" y="880.213px" style="font-family:'Poppins-Medium', 'Poppins';font-weight:500;font-size:41.667px;fill:#909090;">E<tspan x="9001.44px 9030.11px 9041.53px 9066.94px " y="880.213px 880.213px 880.213px 880.213px ">dict</tspan></text></g></svg>