<svg xmlns="http://www.w3.org/2000/svg" width="542" height="469.253" viewBox="0 0 542 469.253">
  <g id="Group_13" data-name="Group 13" transform="translate(-1238 -498.465)">
    <g id="Group_3" data-name="Group 3" transform="translate(1238 498.465)">
      <path id="Polygon_3" data-name="Polygon 3" d="M134,0,268,233H0Z" transform="translate(0 0.253)" fill="#a8dadc"/>
      <path id="Polygon_4" data-name="Polygon 4" d="M134,0,268,233H0Z" transform="translate(268 0.253)" fill="#f1faee"/>
      <path id="Path_9" data-name="Path 9" d="M73.335,0A73.335,73.335,0,0,1,146.67,73.335c0,40.5-146.67,40.5-146.67,0A73.335,73.335,0,0,1,73.335,0Z" transform="translate(196.473 4.13)" fill="#e63946"/>
      <path id="Path_10" data-name="Path 10" d="M73.335,0A73.335,73.335,0,0,1,146.67,73.335c0,40.5-146.67,40.5-146.67,0A73.335,73.335,0,0,1,73.335,0Z" transform="translate(343.143 353.484) rotate(180)" fill="#e63946"/>
      <path id="Polygon_1" data-name="Polygon 1" d="M134,0,268,232H0Z" transform="translate(274 237.253)" fill="#a8dadc"/>
      <path id="Path_4" data-name="Path 4" d="M134.15,0l-.629,232.526H0Z" transform="translate(3.297 236.655)" fill="#fff"/>
      <path id="Path_7" data-name="Path 7" d="M134.15,0l-.629,232.526H0Z" transform="translate(0.2)" fill="#fff"/>
      <path id="Path_11" data-name="Path 11" d="M134.15,0l-.629,232.526H0Z" transform="translate(268.019 0.552)" fill="#a8dadc"/>
      <path id="Path_8" data-name="Path 8" d="M0,0,.629,232.526H134.15Z" transform="translate(136.851 236.655)" fill="#f1faee"/>
      <path id="Path_12" data-name="Path 12" d="M134.15,0l-.629,232.526H0Z" transform="translate(273.981 236.655)" fill="#f1faee"/>
      <path id="Path_13" data-name="Path 13" d="M1556.133,731.58c3.319.266-11.819-29.215-94.682-22.309S1552.814,731.314,1556.133,731.58Z" transform="translate(-1215.077 -458.185)" fill="#fff" opacity="0.22"/>
    </g>
    <circle id="Ellipse_1" data-name="Ellipse 1" cx="11.5" cy="11.5" r="11.5" transform="translate(1463 533.718)" fill="#fff"/>
    <circle id="Ellipse_2" data-name="Ellipse 2" cx="11.5" cy="11.5" r="11.5" transform="translate(1529 533.718)" fill="#fff"/>
  </g>
</svg>
