<svg xmlns="http://www.w3.org/2000/svg" width="101.543" height="90.541" viewBox="0 0 101.543 90.541">
  <g id="Group_2320" data-name="Group 2320" transform="translate(-232.161 -1602.288)">
    <path id="Path_22349" data-name="Path 22349" d="M607.467,2522.348s-14.026.238-19.605.338a1.482,1.482,0,0,1-1.39-2.044c4.8-11.608,28.059-67.887,28.059-67.887a66.478,66.478,0,0,1-22.755-7.958l-1.726-1.007h0a1.281,1.281,0,0,1-.411-1.769c1.321-2.107,4.215-6.726,5.617-8.958a1.5,1.5,0,0,1,.941-.663,1.475,1.475,0,0,1,1.129.219,53.5,53.5,0,0,0,23.652,7.439l5.147,23.729.009,3.469-18.666,55.091" transform="translate(-338.54 -829.857)" fill="#171717" fill-rule="evenodd"/>
    <path id="Path_22350" data-name="Path 22350" d="M668.894,2522.076s14.028.125,19.608.181a1.479,1.479,0,0,0,1.373-2.056c-4.891-11.571-28.607-67.656-28.607-67.656a66.476,66.476,0,0,0,22.689-8.145l1.718-1.02h0a1.283,1.283,0,0,0,.4-1.774c-1.338-2.094-4.269-6.689-5.688-8.915a1.5,1.5,0,0,0-.947-.65,1.469,1.469,0,0,0-1.127.225,53.412,53.412,0,0,1-23.592,7.632l-4.756,23.742.019,3.469,18.913,54.966" transform="translate(-362.383 -829.723)" fill="#171717" fill-rule="evenodd"/>
    <path id="Path_22359" data-name="Path 22359" d="M655.2,2488.05c3.186,1.412,5.045,3.475,4.276,7.307,0,0-3.666,13.884-40.767,23.448,0,0-18.88,5.063-32.461,5.051,0,0-23.689.193-21.593-9.9a9.281,9.281,0,0,1,.34-.875l1.4-2.969c-4,3.876-7.141,9.483-3.429,13.365a21.442,21.442,0,0,0,7.461,4.107c4.461,1.35,10.334,1.288,14.021,1.632,7.349.681,16.709-.932,22.609-1.632a88.82,88.82,0,0,0,12.792-2.594c9.384-2.569,24.542-5.763,39.207-21.266,0,0,4.328-5.37,3.744-9.139a12.964,12.964,0,0,0-.616-2.413,3.28,3.28,0,0,0-.16-.35c-.03-.069-.158-.3-.184-.369-.7-1.163-2.407-2.013-4.034-2.476Z" transform="translate(-329.147 -850.731)" fill="#da1010" fill-rule="evenodd"/>
    <path id="Path_22357" data-name="Path 22357" d="M620.684,2518.428s20-4.176,35.982-16.884c0,0,8.416-7.251,2.988-12.958,0,0-4.513-5.22-19.333-4.3,0,0,18.418-.494,16.345,9.458,0,0-3.766,11.877-35.982,19.973,0,0-17.118,4.157-28.839,3.844,0-.369-9.645-.637-13.181-2.432-2.565-1.306-5.551-3-4.248-6.939,0,0-8.97,1.038-1.937,9.371,0,0,4.773,7.17,29.125,4.451l8.9-1.337Z" transform="translate(-332.327 -849.278)" fill="#fff" fill-rule="evenodd"/>
    <path id="Path_22358" data-name="Path 22358" d="M622.839,2515.028s18.611-3.444,33.477-13.928c0,0,7.83-5.976,2.78-10.689,0,0-4.2-4.3-17.986-3.545,0,0,17.136-.406,15.206,7.8,0,0-3.5,10.389-33.477,17.065,0,0-15.257,3.551-26.162,3.295,0,0-19.33.294-16.209-8.064,0,0,1.1-3.426,10.066-8.483,0,0-19.087,8.952-12.544,15.828,0,0,4.44,5.914,27.1,3.669l8.284-1.1Z" transform="translate(-334.89 -850.254)" fill="#171717" fill-rule="evenodd"/>
    <path id="Path_22365" data-name="Path 22365" d="M573.469,2537.89a6.439,6.439,0,0,1,4.01,11.623,6.491,6.491,0,0,1-4.01,1.318,6.472,6.472,0,1,1,0-12.94Z" transform="translate(-331.22 -869.415)" fill="#da1010" stroke="#fff" stroke-linecap="round" stroke-width="3" fill-rule="evenodd"/>
    <path id="Path_22356" data-name="Path 22356" d="M704.762,2479.38a3.026,3.026,0,1,1-3.1,3.026A3.067,3.067,0,0,1,704.762,2479.38Z" transform="translate(-381.764 -847.481)" fill="#d52727" stroke="#fff" stroke-linecap="round" stroke-width="1.587" fill-rule="evenodd"/>
  </g>
</svg>
